<svg width="32" height="32" viewBox="0 0 32 32" fill="none" xmlns="http://www.w3.org/2000/svg">
<g clip-path="url(#clip0_1_6372)">
<mask id="mask0_1_6372" style="mask-type:alpha" maskUnits="userSpaceOnUse" x="0" y="0" width="32" height="32">
<path d="M0 0H32V32H0V0Z" fill="white"/>
</mask>
<g mask="url(#mask0_1_6372)">
<path fill-rule="evenodd" clip-rule="evenodd" d="M23 9.66669C23 11.5232 22.2625 13.3037 20.9497 14.6164C19.637 15.9292 17.8565 16.6667 16 16.6667C14.1435 16.6667 12.363 15.9292 11.0503 14.6164C9.7375 13.3037 9 11.5232 9 9.66669C9 7.81017 9.7375 6.02969 11.0503 4.71694C12.363 3.40418 14.1435 2.66669 16 2.66669C17.8565 2.66669 19.637 3.40418 20.9497 4.71694C22.2625 6.02969 23 7.81017 23 9.66669V9.66669ZM16 18.6667C17.9091 18.6697 19.7693 18.0629 21.3093 16.9347C23.4992 17.4552 25.4495 18.6989 26.845 20.4649C28.2406 22.2309 28.9998 24.4159 29 26.6667C29 27.4623 28.6839 28.2254 28.1213 28.788C27.5587 29.3506 26.7957 29.6667 26 29.6667H6C5.20435 29.6667 4.44129 29.3506 3.87868 28.788C3.31607 28.2254 3 27.4623 3 26.6667C3.00019 24.4159 3.75943 22.2309 5.15498 20.4649C6.55053 18.6989 8.50084 17.4552 10.6907 16.9347C12.2307 18.0629 14.0909 18.6697 16 18.6667Z" fill="#D8D8D8"/>
</g>
</g>
<defs>
<clipPath id="clip0_1_6372">
<rect width="32" height="32" fill="white"/>
</clipPath>
</defs>
</svg>
