<svg width="24" height="24" viewBox="0 0 24 24" fill="none" xmlns="http://www.w3.org/2000/svg">
<g clip-path="url(#clip0_3040_10647)">
<path fill-rule="evenodd" clip-rule="evenodd" d="M12 24C18.6276 24 24 18.6276 24 12C24 5.3724 18.6276 0 12 0C5.3724 0 0 5.3724 0 12C0 18.6276 5.3724 24 12 24ZM12.3036 5.7576C12.0573 6.002 11.9139 6.33146 11.903 6.67829C11.892 7.02512 12.0144 7.36297 12.2448 7.6224L15.0012 10.68H6.12C5.76991 10.68 5.43417 10.8191 5.18662 11.0666C4.93907 11.3142 4.8 11.6499 4.8 12C4.8 12.3501 4.93907 12.6858 5.18662 12.9334C5.43417 13.1809 5.76991 13.32 6.12 13.32H15L12.2448 16.3776C11.7648 16.9092 11.7912 17.7444 12.3036 18.2436C12.4231 18.3617 12.5654 18.4541 12.7219 18.5153C12.8783 18.5765 13.0456 18.6052 13.2135 18.5996C13.3814 18.594 13.5464 18.5542 13.6984 18.4827C13.8504 18.4111 13.9862 18.3094 14.0976 18.1836L18.8568 12.9036C19.0781 12.6549 19.2004 12.3335 19.2004 12.0006C19.2004 11.6677 19.0781 11.3463 18.8568 11.0976L14.0976 5.8176C13.9862 5.69182 13.8504 5.59007 13.6984 5.51855C13.5464 5.44703 13.3814 5.40725 13.2135 5.40163C13.0456 5.39602 12.8783 5.42469 12.7219 5.48589C12.5654 5.54709 12.4231 5.63955 12.3036 5.7576V5.7576Z" fill="#10A8E5"/>
</g>
<defs>
<clipPath id="clip0_3040_10647">
<rect width="24" height="24" fill="white"/>
</clipPath>
</defs>
</svg>
