<svg width="18" height="18" viewBox="0 0 18 18" fill="none" xmlns="http://www.w3.org/2000/svg">
<path d="M9.86032 2.07599C10.0884 1.84791 10.2165 1.53856 10.2165 1.21599C10.2165 0.893432 10.0884 0.584081 9.86032 0.355995C9.63223 0.127909 9.32288 -0.000228882 9.00032 -0.000228882C8.67775 -0.000228882 8.3684 0.127909 8.14032 0.355995L0.356316 8.14C0.243353 8.25292 0.153743 8.38699 0.0926054 8.53455C0.0314677 8.68211 0 8.84027 0 8.99999C0 9.15972 0.0314677 9.31788 0.0926054 9.46544C0.153743 9.613 0.243353 9.74707 0.356316 9.85999L8.14032 17.644C8.25325 17.7569 8.38733 17.8465 8.53489 17.9076C8.68245 17.9688 8.8406 18.0002 9.00032 18.0002C9.16003 18.0002 9.31819 17.9688 9.46574 17.9076C9.6133 17.8465 9.74738 17.7569 9.86032 17.644C9.97325 17.5311 10.0628 17.397 10.124 17.2494C10.1851 17.1019 10.2165 16.9437 10.2165 16.784C10.2165 16.6243 10.1851 16.4661 10.124 16.3186C10.0628 16.171 9.97325 16.0369 9.86032 15.924L4.15232 10.216H16.7843C17.1068 10.216 17.4161 10.0879 17.6442 9.85984C17.8722 9.63179 18.0003 9.3225 18.0003 8.99999C18.0003 8.67749 17.8722 8.3682 17.6442 8.14015C17.4161 7.91211 17.1068 7.784 16.7843 7.784H4.15232L9.86032 2.07599V2.07599Z" fill="white"/>
</svg>
