<svg width="24" height="24" viewBox="0 0 24 24" fill="none" xmlns="http://www.w3.org/2000/svg">
<path d="M14.5 13C14.5 14.3807 13.3807 15.5 12 15.5C10.6193 15.5 9.5 14.3807 9.5 13C9.5 11.6193 10.6193 10.5 12 10.5C13.3807 10.5 14.5 11.6193 14.5 13Z" fill="white" stroke="black"/>
<path d="M9.44188 3.5H9.442H14.5589C14.5589 3.5 14.559 3.5 14.559 3.5C14.8738 3.50011 15.1805 3.59924 15.4359 3.78336C15.6912 3.9675 15.8821 4.22731 15.9816 4.526L15.9817 4.52611L16.5257 6.15811L16.6396 6.5H17H19C19.663 6.5 20.2989 6.76339 20.7678 7.23223C21.2366 7.70107 21.5 8.33696 21.5 9V17C21.5 17.663 21.2366 18.2989 20.7678 18.7678C20.2989 19.2366 19.663 19.5 19 19.5H5C4.33696 19.5 3.70107 19.2366 3.23223 18.7678C2.76339 18.2989 2.5 17.663 2.5 17V9C2.5 8.33696 2.76339 7.70107 3.23223 7.23223C3.70107 6.76339 4.33696 6.5 5 6.5H7H7.36038L7.47434 6.15811L8.01834 4.52611L7.544 4.368L8.01838 4.526C8.1179 4.22719 8.30896 3.96729 8.56445 3.78314C8.81995 3.59898 9.12693 3.49992 9.44188 3.5ZM12 18.5C13.4587 18.5 14.8576 17.9205 15.8891 16.8891C16.9205 15.8576 17.5 14.4587 17.5 13C17.5 11.5413 16.9205 10.1424 15.8891 9.11091C14.8576 8.07946 13.4587 7.5 12 7.5C10.5413 7.5 9.14236 8.07946 8.11091 9.11091C7.07946 10.1424 6.5 11.5413 6.5 13C6.5 14.4587 7.07946 15.8576 8.11091 16.8891C9.14236 17.9205 10.5413 18.5 12 18.5ZM19 10.5C19.3978 10.5 19.7794 10.342 20.0607 10.0607C20.342 9.77935 20.5 9.39782 20.5 9C20.5 8.60218 20.342 8.22065 20.0607 7.93934C19.7794 7.65804 19.3978 7.5 19 7.5C18.6022 7.5 18.2206 7.65804 17.9393 7.93934C17.658 8.22065 17.5 8.60218 17.5 9C17.5 9.39782 17.658 9.77935 17.9393 10.0607C18.2206 10.342 18.6022 10.5 19 10.5Z" fill="white" stroke="black"/>
</svg>
