<svg width="24" height="24" viewBox="0 0 24 24" fill="none" xmlns="http://www.w3.org/2000/svg">
<path d="M12 15.5C13.3807 15.5 14.5 14.3807 14.5 13C14.5 11.6193 13.3807 10.5 12 10.5C10.6193 10.5 9.5 11.6193 9.5 13C9.5 14.3807 10.6193 15.5 12 15.5Z" fill="#10A8E5"/>
<path fill-rule="evenodd" clip-rule="evenodd" d="M8.967 4.842L8.081 7.5H5C4.60218 7.5 4.22064 7.65804 3.93934 7.93934C3.65804 8.22064 3.5 8.60218 3.5 9V17C3.5 17.3978 3.65804 17.7794 3.93934 18.0607C4.22064 18.342 4.60218 18.5 5 18.5H19C19.3978 18.5 19.7794 18.342 20.0607 18.0607C20.342 17.7794 20.5 17.3978 20.5 17V9C20.5 8.60218 20.342 8.22064 20.0607 7.93934C19.7794 7.65804 19.3978 7.5 19 7.5H15.919L15.033 4.842C14.9999 4.74248 14.9362 4.6559 14.8512 4.59452C14.7661 4.53315 14.6639 4.50008 14.559 4.5H9.442C9.33693 4.49987 9.23449 4.53284 9.14923 4.59423C9.06396 4.65562 9.0002 4.74232 8.967 4.842ZM16.456 4.368C16.3234 3.96975 16.0688 3.62333 15.7283 3.37781C15.3878 3.13229 14.9788 3.00011 14.559 3H9.442C9.02207 2.9999 8.61276 3.13198 8.2721 3.37752C7.93143 3.62305 7.6767 3.96959 7.544 4.368L7 6H5C4.20435 6 3.44129 6.31607 2.87868 6.87868C2.31607 7.44129 2 8.20435 2 9V17C2 17.7956 2.31607 18.5587 2.87868 19.1213C3.44129 19.6839 4.20435 20 5 20H19C19.7956 20 20.5587 19.6839 21.1213 19.1213C21.6839 18.5587 22 17.7956 22 17V9C22 8.20435 21.6839 7.44129 21.1213 6.87868C20.5587 6.31607 19.7956 6 19 6H17L16.456 4.368Z" fill="#6A6A6A"/>
<path fill-rule="evenodd" clip-rule="evenodd" d="M12 16.5C12.9283 16.5 13.8185 16.1313 14.4749 15.4749C15.1313 14.8185 15.5 13.9283 15.5 13C15.5 12.0717 15.1313 11.1815 14.4749 10.5251C13.8185 9.86875 12.9283 9.5 12 9.5C11.0717 9.5 10.1815 9.86875 9.52513 10.5251C8.86875 11.1815 8.5 12.0717 8.5 13C8.5 13.9283 8.86875 14.8185 9.52513 15.4749C10.1815 16.1313 11.0717 16.5 12 16.5ZM12 18C13.3261 18 14.5979 17.4732 15.5355 16.5355C16.4732 15.5979 17 14.3261 17 13C17 11.6739 16.4732 10.4021 15.5355 9.46447C14.5979 8.52678 13.3261 8 12 8C10.6739 8 9.40215 8.52678 8.46447 9.46447C7.52678 10.4021 7 11.6739 7 13C7 14.3261 7.52678 15.5979 8.46447 16.5355C9.40215 17.4732 10.6739 18 12 18Z" fill="#6A6A6A"/>
<path d="M18.5 10.5C19.0523 10.5 19.5 10.0523 19.5 9.5C19.5 8.94772 19.0523 8.5 18.5 8.5C17.9477 8.5 17.5 8.94772 17.5 9.5C17.5 10.0523 17.9477 10.5 18.5 10.5Z" fill="#6A6A6A"/>
</svg>
