<svg width="24" height="24" viewBox="0 0 24 24" fill="none" xmlns="http://www.w3.org/2000/svg">
<path d="M7.5 3.75C8.09674 3.75 8.66903 3.98705 9.09099 4.40901C9.51295 4.83097 9.75 5.40326 9.75 6V7.5C9.75 8.09674 9.51295 8.66903 9.09099 9.09099C8.66903 9.51295 8.09674 9.75 7.5 9.75H6C5.40326 9.75 4.83097 9.51295 4.40901 9.09099C3.98705 8.66903 3.75 8.09674 3.75 7.5V6C3.75 5.40326 3.98705 4.83097 4.40901 4.40901C4.83097 3.98705 5.40326 3.75 6 3.75H7.5ZM7.5 12.75C8.09674 12.75 8.66903 12.9871 9.09099 13.409C9.51295 13.831 9.75 14.4033 9.75 15V16.5C9.75 17.0967 9.51295 17.669 9.09099 18.091C8.66903 18.5129 8.09674 18.75 7.5 18.75H6C5.40326 18.75 4.83097 18.5129 4.40901 18.091C3.98705 17.669 3.75 17.0967 3.75 16.5V15C3.75 14.4033 3.98705 13.831 4.40901 13.409C4.83097 12.9871 5.40326 12.75 6 12.75H7.5ZM16.5 3.75C17.0967 3.75 17.669 3.98705 18.091 4.40901C18.5129 4.83097 18.75 5.40326 18.75 6V7.5C18.75 8.09674 18.5129 8.66903 18.091 9.09099C17.669 9.51295 17.0967 9.75 16.5 9.75H15C14.4033 9.75 13.831 9.51295 13.409 9.09099C12.9871 8.66903 12.75 8.09674 12.75 7.5V6C12.75 5.40326 12.9871 4.83097 13.409 4.40901C13.831 3.98705 14.4033 3.75 15 3.75H16.5Z" stroke="#6A6A6A" stroke-width="1.5"/>
<path d="M18 12C18.7956 12 19.5587 12.3161 20.1213 12.8787C20.6839 13.4413 21 14.2044 21 15V18C21 18.7956 20.6839 19.5587 20.1213 20.1213C19.5587 20.6839 18.7956 21 18 21H15C14.2044 21 13.4413 20.6839 12.8787 20.1213C12.3161 19.5587 12 18.7956 12 18V15C12 14.2044 12.3161 13.4413 12.8787 12.8787C13.4413 12.3161 14.2044 12 15 12H18Z" fill="#10A8E5"/>
</svg>
