<svg width="13" height="12" viewBox="0 0 13 12" fill="none" xmlns="http://www.w3.org/2000/svg">
<path fill-rule="evenodd" clip-rule="evenodd" d="M4.06429 1.19466C4.1887 1.07033 4.3574 1.00049 4.53329 1.00049C4.70918 1.00049 4.87787 1.07033 5.00229 1.19466L9.33879 5.53116C9.40041 5.59273 9.44929 5.66584 9.48264 5.74632C9.516 5.82679 9.53316 5.91305 9.53316 6.00016C9.53316 6.08727 9.516 6.17353 9.48264 6.254C9.44929 6.33447 9.40041 6.40759 9.33879 6.46916L5.00229 10.8057C4.87681 10.9246 4.70984 10.9899 4.53693 10.9876C4.36403 10.9853 4.19885 10.9156 4.07658 10.7934C3.9543 10.6711 3.8846 10.5059 3.8823 10.333C3.88 10.1601 3.9453 9.99313 4.06429 9.86766L7.93179 6.00016L4.06429 2.13266C3.93996 2.00824 3.87012 1.83955 3.87012 1.66366C3.87012 1.48777 3.93996 1.31907 4.06429 1.19466Z" fill="white"/>
</svg>
