<svg width="24" height="25" viewBox="0 0 24 25" fill="none" xmlns="http://www.w3.org/2000/svg">
<path fill-rule="evenodd" clip-rule="evenodd" d="M6.38883 2.62564C6.63766 2.37698 6.97505 2.2373 7.32683 2.2373C7.67861 2.2373 8.01599 2.37698 8.26483 2.62564L16.9378 11.2986C17.0611 11.4218 17.1588 11.568 17.2255 11.729C17.2922 11.8899 17.3266 12.0624 17.3266 12.2366C17.3266 12.4109 17.2922 12.5834 17.2255 12.7443C17.1588 12.9053 17.0611 13.0515 16.9378 13.1746L8.26483 21.8476C8.01387 22.0856 7.67993 22.2162 7.33412 22.2116C6.98831 22.207 6.65795 22.0676 6.41341 21.8231C6.16886 21.5785 6.02944 21.2482 6.02485 20.9023C6.02026 20.5565 6.15086 20.2226 6.38883 19.9716L14.1238 12.2366L6.38883 4.50164C6.14017 4.25281 6.00049 3.91542 6.00049 3.56364C6.00049 3.21186 6.14017 2.87448 6.38883 2.62564Z" fill="#10A8E5"/>
</svg>
