<svg width="24" height="24" viewBox="0 0 24 24" fill="none" xmlns="http://www.w3.org/2000/svg">
<path fill-rule="evenodd" clip-rule="evenodd" d="M6.38932 2.38901C6.63815 2.14035 6.97554 2.00067 7.32732 2.00067C7.6791 2.00067 8.01648 2.14035 8.26532 2.38901L16.9383 11.062C17.0616 11.1852 17.1593 11.3314 17.226 11.4923C17.2927 11.6533 17.3271 11.8258 17.3271 12C17.3271 12.1742 17.2927 12.3467 17.226 12.5077C17.1593 12.6686 17.0616 12.8149 16.9383 12.938L8.26532 21.611C8.01436 21.849 7.68042 21.9796 7.33461 21.975C6.9888 21.9704 6.65844 21.831 6.41389 21.5864C6.16935 21.3419 6.02993 21.0115 6.02534 20.6657C6.02075 20.3199 6.15135 19.986 6.38932 19.735L14.1243 12L6.38932 4.26501C6.14066 4.01618 6.00098 3.67879 6.00098 3.32701C6.00098 2.97523 6.14066 2.63784 6.38932 2.38901Z" fill="#D8D8D8"/>
</svg>
