<svg width="24" height="24" viewBox="0 0 24 24" fill="none" xmlns="http://www.w3.org/2000/svg">
<path fill-rule="evenodd" clip-rule="evenodd" d="M3.4998 7.5H20.5002C21.6042 7.5 22.5 8.268 22.5 9.2142C22.5 10.161 21.6048 10.9284 20.5002 10.9284H3.4998C2.3958 10.9284 1.5 10.161 1.5 9.2142C1.5 8.2674 2.3952 7.5 3.4998 7.5Z" fill="#10A8E5"/>
<path d="M13.6694 1.86721L9.5 6.49981H17L18.4568 5.04361C18.5213 4.97916 18.5703 4.90084 18.6001 4.81462C18.6298 4.72839 18.6395 4.63652 18.6284 4.54599C18.6173 4.45547 18.5857 4.36866 18.536 4.29218C18.4863 4.21569 18.4198 4.15155 18.3416 4.10461L14.4236 1.75441C14.3043 1.68287 14.1639 1.655 14.0263 1.67558C13.8887 1.69615 13.7625 1.76389 13.6694 1.86721Z" fill="#F77670"/>
<path fill-rule="evenodd" clip-rule="evenodd" d="M3.25 18.315V12H20.7496V18.315C20.7496 19.3096 20.3545 20.2634 19.6513 20.9667C18.948 21.6699 17.9942 22.065 16.9996 22.065H7C6.00544 22.065 5.05161 21.6699 4.34835 20.9667C3.64509 20.2634 3.25 19.3096 3.25 18.315ZM13.0018 19.7088C12.9359 19.7089 12.8706 19.696 12.8097 19.6708C12.7487 19.6456 12.6934 19.6087 12.6467 19.5621C12.6001 19.5155 12.5631 19.4602 12.5378 19.3993C12.5126 19.3384 12.4996 19.2731 12.4996 19.2072V16.05C12.4996 15.8046 12.6988 15.606 12.9448 15.606H13.066C13.2514 15.606 13.3996 15.759 13.393 15.9438H13.405C13.405 15.9438 13.6774 15.5364 14.3098 15.5364C15.1222 15.5364 15.6556 16.1682 15.6556 17.0862C15.6556 18.0216 15.058 18.63 14.2636 18.63C13.7758 18.63 13.5034 18.3486 13.5034 18.3486H13.4914C13.4914 18.3486 13.5034 18.4518 13.5034 18.6012V19.2072C13.5034 19.3402 13.4506 19.4678 13.3565 19.5619C13.2624 19.656 13.1348 19.7088 13.0018 19.7088ZM13.6498 17.1036C13.6498 16.593 13.9342 16.3746 14.236 16.3746C14.584 16.3746 14.8216 16.6614 14.8216 17.1036C14.8216 17.5566 14.5492 17.8092 14.236 17.8092C13.8412 17.8092 13.6498 17.4594 13.6498 17.1036ZM9.5074 18.3888C9.37278 18.3888 9.24367 18.3353 9.14847 18.2401C9.05328 18.1449 8.9998 18.0158 8.9998 17.8812V15.0648C8.9998 14.6346 9.3484 14.2854 9.7786 14.2854H10.4446C10.8676 14.2854 11.071 14.3142 11.2504 14.3832C11.7208 14.5608 12.0166 14.9802 12.0166 15.5772C12.0166 16.0128 11.8078 16.4892 11.3956 16.6962V16.7076C11.3956 16.7076 11.4538 16.782 11.5522 16.9542L11.9482 17.6592C11.9791 17.7156 11.9986 17.7776 12.0055 17.8415C12.0125 17.9054 12.0067 17.9701 11.9887 18.0319C11.9706 18.0936 11.9406 18.1512 11.9003 18.2013C11.86 18.2514 11.8102 18.2931 11.7538 18.324C11.6974 18.3549 11.6354 18.3744 11.5715 18.3813C11.5076 18.3883 11.4429 18.3825 11.3811 18.3645C11.3194 18.3464 11.2618 18.3164 11.2117 18.2761C11.1616 18.2358 11.1199 18.186 11.089 18.1296L10.4908 17.0058H10.015V17.8818C10.0148 18.0163 9.96129 18.1453 9.86612 18.2403C9.77094 18.3354 9.64192 18.3888 9.5074 18.3888ZM9.9994 16.0848V15.0864H10.342C10.8526 15.0864 10.9684 15.2706 10.9684 15.5802C10.9684 15.9072 10.7656 16.0854 10.4404 16.0854H10L9.9994 16.0848Z" fill="#10A8E5"/>
</svg>
