<svg width="32" height="32" viewBox="0 0 32 32" fill="none" xmlns="http://www.w3.org/2000/svg">
<g clip-path="url(#clip0_1_6603)">
<mask id="mask0_1_6603" style="mask-type:alpha" maskUnits="userSpaceOnUse" x="0" y="0" width="32" height="32">
<path d="M0 0H32V32H0V0Z" fill="white"/>
</mask>
<g mask="url(#mask0_1_6603)">
<path fill-rule="evenodd" clip-rule="evenodd" d="M9.33333 2C7.91885 2 6.56229 2.5619 5.5621 3.5621C4.5619 4.56229 4 5.91885 4 7.33333V24.6667C4 26.0812 4.5619 27.4377 5.5621 28.4379C6.56229 29.4381 7.91885 30 9.33333 30H22.6667C24.0812 30 25.4377 29.4381 26.4379 28.4379C27.4381 27.4377 28 26.0812 28 24.6667V7.33333C28 5.91885 27.4381 4.56229 26.4379 3.5621C25.4377 2.5619 24.0812 2 22.6667 2H9.33333ZM9 16.5C8.73478 16.5 8.48043 16.6054 8.29289 16.7929C8.10536 16.9804 8 17.2348 8 17.5C8 17.7652 8.10536 18.0196 8.29289 18.2071C8.48043 18.3946 8.73478 18.5 9 18.5H19C19.2652 18.5 19.5196 18.3946 19.7071 18.2071C19.8946 18.0196 20 17.7652 20 17.5C20 17.2348 19.8946 16.9804 19.7071 16.7929C19.5196 16.6054 19.2652 16.5 19 16.5H9ZM8 22.5C8 22.2348 8.10536 21.9804 8.29289 21.7929C8.48043 21.6054 8.73478 21.5 9 21.5H23C23.2652 21.5 23.5196 21.6054 23.7071 21.7929C23.8946 21.9804 24 22.2348 24 22.5C24 22.7652 23.8946 23.0196 23.7071 23.2071C23.5196 23.3946 23.2652 23.5 23 23.5H9C8.73478 23.5 8.48043 23.3946 8.29289 23.2071C8.10536 23.0196 8 22.7652 8 22.5ZM12.788 7.04667C12.3959 7.13817 12.0396 7.34369 11.764 7.63733C11.7027 7.7 11.6373 7.75733 11.5773 7.812L11.5 7.88133C11.4685 7.85195 11.4369 7.82262 11.4053 7.79333C11.3347 7.72667 11.2587 7.65867 11.1867 7.588C10.764 7.18533 10.2667 6.97067 9.68 7.00533C9.272 7.02933 8.912 7.17867 8.62533 7.46933C8.06533 8.03333 7.87867 8.70667 8.076 9.48267C8.17733 9.87867 8.36533 10.2347 8.59067 10.5707C8.94267 11.096 9.37467 11.5493 9.83733 11.976C10.352 12.4493 10.9053 12.876 11.4707 13.288C11.4973 13.308 11.5133 13.3013 11.5347 13.284L11.852 13.0427C12.076 12.8733 12.2987 12.7027 12.5187 12.528C13.052 12.1013 13.552 11.6373 13.996 11.1147C14.2867 10.7733 14.544 10.408 14.736 9.99867C14.88 9.7037 14.9677 9.38446 14.9947 9.05733C15.0267 8.60533 14.9093 8.192 14.6613 7.81467C14.2347 7.16267 13.5453 6.87867 12.788 7.048V7.04667Z" fill="#10A8E5"/>
</g>
</g>
<defs>
<clipPath id="clip0_1_6603">
<rect width="32" height="32" fill="white"/>
</clipPath>
</defs>
</svg>
