<svg width="32" height="32" viewBox="0 0 32 32" fill="none" xmlns="http://www.w3.org/2000/svg">
<mask id="mask0_3029_5249" style="mask-type:alpha" maskUnits="userSpaceOnUse" x="0" y="0" width="32" height="32">
<path d="M0 0H32V32H0V0Z" fill="white"/>
</mask>
<g mask="url(#mask0_3029_5249)">
<path fill-rule="evenodd" clip-rule="evenodd" d="M30 16C30 23.732 23.732 30 16 30C8.268 30 2 23.732 2 16C2 8.268 8.268 2 16 2C23.732 2 30 8.268 30 16ZM18.208 11.08C17.5213 11.232 16.9453 11.5827 16.4533 12.0787C16.348 12.1853 16.236 12.2827 16.1307 12.376L16 12.4933L15.8373 12.3427C15.7117 12.2279 15.5868 12.1123 15.4627 11.996C14.7373 11.3147 13.8867 10.9507 12.8773 11.0093C12.1983 11.0352 11.5539 11.3156 11.072 11.7947C10.112 12.7493 9.792 13.8907 10.1307 15.2027C10.304 15.8733 10.624 16.476 11.012 17.0467C11.616 17.9347 12.3587 18.7027 13.1493 19.424C14.032 20.2267 14.9813 20.948 15.9493 21.6467C15.996 21.68 16.0227 21.6667 16.06 21.64L16.6027 21.2307C16.9867 20.9427 17.3693 20.656 17.7467 20.36C18.6627 19.6387 19.5187 18.852 20.28 17.9667C20.7773 17.388 21.2187 16.7707 21.5467 16.0773C21.7867 15.572 21.952 15.0453 21.992 14.484C22.0458 13.7381 21.844 12.996 21.42 12.38C20.6867 11.276 19.5067 10.7947 18.208 11.0813V11.08Z" fill="#D3D3D3"/>
</g>
</svg>
