<svg width="33" height="32" viewBox="0 0 33 32" fill="none" xmlns="http://www.w3.org/2000/svg">
<g clip-path="url(#clip0_3029_9606)">
<mask id="mask0_3029_9606" style="mask-type:alpha" maskUnits="userSpaceOnUse" x="0" y="0" width="33" height="32">
<path d="M0.5 0H32.5V32H0.5V0Z" fill="white"/>
</mask>
<g mask="url(#mask0_3029_9606)">
<path fill-rule="evenodd" clip-rule="evenodd" d="M9.83333 2C8.41885 2 7.06229 2.5619 6.0621 3.5621C5.0619 4.56229 4.5 5.91885 4.5 7.33333V24.6667C4.5 26.0812 5.0619 27.4377 6.0621 28.4379C7.06229 29.4381 8.41885 30 9.83333 30H23.1667C24.5812 30 25.9377 29.4381 26.9379 28.4379C27.9381 27.4377 28.5 26.0812 28.5 24.6667V7.33333C28.5 5.91885 27.9381 4.56229 26.9379 3.5621C25.9377 2.5619 24.5812 2 23.1667 2H9.83333ZM9.5 16.5C9.23478 16.5 8.98043 16.6054 8.79289 16.7929C8.60536 16.9804 8.5 17.2348 8.5 17.5C8.5 17.7652 8.60536 18.0196 8.79289 18.2071C8.98043 18.3946 9.23478 18.5 9.5 18.5H19.5C19.7652 18.5 20.0196 18.3946 20.2071 18.2071C20.3946 18.0196 20.5 17.7652 20.5 17.5C20.5 17.2348 20.3946 16.9804 20.2071 16.7929C20.0196 16.6054 19.7652 16.5 19.5 16.5H9.5ZM8.5 22.5C8.5 22.2348 8.60536 21.9804 8.79289 21.7929C8.98043 21.6054 9.23478 21.5 9.5 21.5H23.5C23.7652 21.5 24.0196 21.6054 24.2071 21.7929C24.3946 21.9804 24.5 22.2348 24.5 22.5C24.5 22.7652 24.3946 23.0196 24.2071 23.2071C24.0196 23.3946 23.7652 23.5 23.5 23.5H9.5C9.23478 23.5 8.98043 23.3946 8.79289 23.2071C8.60536 23.0196 8.5 22.7652 8.5 22.5ZM13.288 7.04667C12.8959 7.13817 12.5396 7.34369 12.264 7.63733C12.2027 7.7 12.1373 7.75733 12.0773 7.812L12 7.88133C11.9685 7.85195 11.9369 7.82262 11.9053 7.79333C11.8347 7.72667 11.7587 7.65867 11.6867 7.588C11.264 7.18533 10.7667 6.97067 10.18 7.00533C9.772 7.02933 9.412 7.17867 9.12533 7.46933C8.56533 8.03333 8.37867 8.70667 8.576 9.48267C8.67733 9.87867 8.86533 10.2347 9.09067 10.5707C9.44267 11.096 9.87467 11.5493 10.3373 11.976C10.852 12.4493 11.4053 12.876 11.9707 13.288C11.9973 13.308 12.0133 13.3013 12.0347 13.284L12.352 13.0427C12.576 12.8733 12.7987 12.7027 13.0187 12.528C13.552 12.1013 14.052 11.6373 14.496 11.1147C14.7867 10.7733 15.044 10.408 15.236 9.99867C15.38 9.7037 15.4677 9.38446 15.4947 9.05733C15.5267 8.60533 15.4093 8.192 15.1613 7.81467C14.7347 7.16267 14.0453 6.87867 13.288 7.048V7.04667Z" fill="#D3D3D3"/>
</g>
</g>
<defs>
<clipPath id="clip0_3029_9606">
<rect width="32" height="32" fill="white" transform="translate(0.5)"/>
</clipPath>
</defs>
</svg>
