<svg width="29" height="28" viewBox="0 0 29 28" fill="none" xmlns="http://www.w3.org/2000/svg">
<path fill-rule="evenodd" clip-rule="evenodd" d="M28.5 14C28.5 21.732 22.232 28 14.5 28C6.768 28 0.5 21.732 0.5 14C0.5 6.268 6.768 0 14.5 0C22.232 0 28.5 6.268 28.5 14ZM16.708 9.08C16.0213 9.232 15.4453 9.58267 14.9533 10.0787C14.848 10.1853 14.736 10.2827 14.6307 10.376L14.5 10.4933L14.3373 10.3427C14.2117 10.2279 14.0868 10.1123 13.9627 9.996C13.2373 9.31467 12.3867 8.95067 11.3773 9.00933C10.6983 9.03521 10.0539 9.31555 9.572 9.79467C8.612 10.7493 8.292 11.8907 8.63067 13.2027C8.804 13.8733 9.124 14.476 9.512 15.0467C10.116 15.9347 10.8587 16.7027 11.6493 17.424C12.532 18.2267 13.4813 18.948 14.4493 19.6467C14.496 19.68 14.5227 19.6667 14.56 19.64L15.1027 19.2307C15.4867 18.9427 15.8693 18.656 16.2467 18.36C17.1627 17.6387 18.0187 16.852 18.78 15.9667C19.2773 15.388 19.7187 14.7707 20.0467 14.0773C20.2867 13.572 20.452 13.0453 20.492 12.484C20.5458 11.7381 20.344 10.996 19.92 10.38C19.1867 9.276 18.0067 8.79467 16.708 9.08133V9.08Z" fill="#10A8E5"/>
</svg>
