<svg width="24" height="24" viewBox="0 0 24 24" fill="none" xmlns="http://www.w3.org/2000/svg">
<path d="M21.1896 3.61998C20.2756 2.71098 18.8946 2.61798 18.1046 3.41198L17.0576 4.46598L20.3676 7.75698L21.4156 6.70398C22.2056 5.90998 22.1036 4.52898 21.1896 3.61998Z" fill="#10A8E5"/>
<path d="M19.0002 9.02998L15.6902 5.73798L9.31218 12.303C8.93525 12.6861 8.6793 13.1715 8.57618 13.699L8.00618 16.496C7.95818 16.736 8.19818 16.976 8.43818 16.926L11.2322 16.34C11.7589 16.2334 12.2426 15.9743 12.6232 15.595L19.0002 9.02998Z" fill="#6A6A6A"/>
<path d="M11 5.03003C11 4.76481 10.8946 4.51046 10.7071 4.32292C10.5196 4.13539 10.2652 4.03003 10 4.03003H6C5.20435 4.03003 4.44129 4.3461 3.87868 4.90871C3.31607 5.47132 3 6.23438 3 7.03003V19.03C3 19.8257 3.31607 20.5887 3.87868 21.1513C4.44129 21.714 5.20435 22.03 6 22.03H18C18.7956 22.03 19.5587 21.714 20.1213 21.1513C20.6839 20.5887 21 19.8257 21 19.03V15.03C21 14.7648 20.8946 14.5105 20.7071 14.3229C20.5196 14.1354 20.2652 14.03 20 14.03C19.7348 14.03 19.4804 14.1354 19.2929 14.3229C19.1054 14.5105 19 14.7648 19 15.03V19.03C19 19.2952 18.8946 19.5496 18.7071 19.7371C18.5196 19.9247 18.2652 20.03 18 20.03H6C5.73478 20.03 5.48043 19.9247 5.29289 19.7371C5.10536 19.5496 5 19.2952 5 19.03V7.03003C5 6.76481 5.10536 6.51046 5.29289 6.32292C5.48043 6.13539 5.73478 6.03003 6 6.03003H10C10.2652 6.03003 10.5196 5.92467 10.7071 5.73714C10.8946 5.5496 11 5.29525 11 5.03003Z" fill="#6A6A6A"/>
</svg>
