<svg width="24" height="24" viewBox="0 0 24 24" fill="none" xmlns="http://www.w3.org/2000/svg">
<path fill-rule="evenodd" clip-rule="evenodd" d="M12.357 3.2C12.722 2.828 12.472 2 11.951 2H5C4.20435 2 3.44129 2.31607 2.87868 2.87868C2.31607 3.44129 2 4.20435 2 5V18C2 18.7956 2.31607 19.5587 2.87868 20.1213C3.44129 20.6839 4.20435 21 5 21H15C15.7956 21 16.5587 20.6839 17.1213 20.1213C17.6839 19.5587 18 18.7956 18 18V14.757C17.9981 14.6837 17.9815 14.6115 17.951 14.5448C17.9206 14.4781 17.8769 14.4183 17.8228 14.3689C17.7686 14.3195 17.705 14.2815 17.6358 14.2573C17.5666 14.2331 17.4932 14.2231 17.42 14.228C17.178 14.243 16.93 14.25 16.75 14.25C13.16 14.25 10.5 11.34 10.5 7.75C10.5 5.979 11.208 4.373 12.357 3.2ZM5.5 13.75C5.30109 13.75 5.11032 13.829 4.96967 13.9697C4.82902 14.1103 4.75 14.3011 4.75 14.5C4.75 14.6989 4.82902 14.8897 4.96967 15.0303C5.11032 15.171 5.30109 15.25 5.5 15.25H10.5C10.6989 15.25 10.8897 15.171 11.0303 15.0303C11.171 14.8897 11.25 14.6989 11.25 14.5C11.25 14.3011 11.171 14.1103 11.0303 13.9697C10.8897 13.829 10.6989 13.75 10.5 13.75H5.5ZM5.5 16.75C5.30109 16.75 5.11032 16.829 4.96967 16.9697C4.82902 17.1103 4.75 17.3011 4.75 17.5C4.75 17.6989 4.82902 17.8897 4.96967 18.0303C5.11032 18.171 5.30109 18.25 5.5 18.25H13C13.1989 18.25 13.3897 18.171 13.5303 18.0303C13.671 17.8897 13.75 17.6989 13.75 17.5C13.75 17.3011 13.671 17.1103 13.5303 16.9697C13.3897 16.829 13.1989 16.75 13 16.75H5.5Z" fill="#10A8E5"/>
<path fill-rule="evenodd" clip-rule="evenodd" d="M17 12.75C18.3261 12.75 19.5979 12.2232 20.5355 11.2855C21.4732 10.3479 22 9.07608 22 7.75C22 6.42392 21.4732 5.15215 20.5355 4.21447C19.5979 3.27678 18.3261 2.75 17 2.75C15.6739 2.75 14.4021 3.27678 13.4645 4.21447C12.5268 5.15215 12 6.42392 12 7.75C12 9.07608 12.5268 10.3479 13.4645 11.2855C14.4021 12.2232 15.6739 12.75 17 12.75ZM17.833 5.528C17.833 5.30707 17.7452 5.0952 17.589 4.93898C17.4328 4.78276 17.2209 4.695 17 4.695C16.7791 4.695 16.5672 4.78276 16.411 4.93898C16.2548 5.0952 16.167 5.30707 16.167 5.528V8.86C16.167 9.32 16.54 9.693 17 9.693H19.222C19.4429 9.693 19.6548 9.60524 19.811 9.44902C19.9672 9.2928 20.055 9.08092 20.055 8.86C20.055 8.63907 19.9672 8.4272 19.811 8.27098C19.6548 8.11476 19.4429 8.027 19.222 8.027H17.833V5.527V5.528Z" fill="#F77670"/>
</svg>
