<svg width="24" height="24" viewBox="0 0 24 24" fill="none" xmlns="http://www.w3.org/2000/svg">
<path fill-rule="evenodd" clip-rule="evenodd" d="M17 12.75C18.3261 12.75 19.5979 12.2232 20.5355 11.2855C21.4732 10.3479 22 9.07608 22 7.75C22 6.42392 21.4732 5.15215 20.5355 4.21447C19.5979 3.27678 18.3261 2.75 17 2.75C15.6739 2.75 14.4021 3.27678 13.4645 4.21447C12.5268 5.15215 12 6.42392 12 7.75C12 9.07608 12.5268 10.3479 13.4645 11.2855C14.4021 12.2232 15.6739 12.75 17 12.75ZM17.833 5.528C17.833 5.30707 17.7452 5.0952 17.589 4.93898C17.4328 4.78276 17.2209 4.695 17 4.695C16.7791 4.695 16.5672 4.78276 16.411 4.93898C16.2548 5.0952 16.167 5.30707 16.167 5.528V8.86C16.167 9.32 16.54 9.693 17 9.693H19.222C19.4429 9.693 19.6548 9.60524 19.811 9.44902C19.9672 9.2928 20.055 9.08092 20.055 8.86C20.055 8.63907 19.9672 8.4272 19.811 8.27098C19.6548 8.11476 19.4429 8.027 19.222 8.027H17.833V5.527V5.528Z" fill="#10A8E5"/>
<path d="M6.75 13.75C6.55109 13.75 6.36032 13.829 6.21967 13.9697C6.07902 14.1103 6 14.3011 6 14.5C6 14.6989 6.07902 14.8897 6.21967 15.0303C6.36032 15.171 6.55109 15.25 6.75 15.25H10.75C10.9489 15.25 11.1397 15.171 11.2803 15.0303C11.421 14.8897 11.5 14.6989 11.5 14.5C11.5 14.3011 11.421 14.1103 11.2803 13.9697C11.1397 13.829 10.9489 13.75 10.75 13.75H6.75ZM6.75 16.75C6.55109 16.75 6.36032 16.829 6.21967 16.9697C6.07902 17.1103 6 17.3011 6 17.5C6 17.6989 6.07902 17.8897 6.21967 18.0303C6.36032 18.171 6.55109 18.25 6.75 18.25H13.25C13.4489 18.25 13.6397 18.171 13.7803 18.0303C13.921 17.8897 14 17.6989 14 17.5C14 17.3011 13.921 17.1103 13.7803 16.9697C13.6397 16.829 13.4489 16.75 13.25 16.75H6.75Z" fill="#6A6A6A"/>
<path d="M12.5001 2.75C12.5001 2.55109 12.4211 2.36032 12.2804 2.21967C12.1398 2.07902 11.949 2 11.7501 2H5.74512C4.75056 2 3.79673 2.39509 3.09347 3.09835C2.39021 3.80161 1.99512 4.75544 1.99512 5.75V17.75C1.99512 18.7446 2.39021 19.6984 3.09347 20.4017C3.79673 21.1049 4.75056 21.5 5.74512 21.5H14.2501C15.2447 21.5 16.1985 21.1049 16.9018 20.4017C17.605 19.6984 18.0001 18.7446 18.0001 17.75V14.75C18.0001 14.5511 17.9211 14.3603 17.7804 14.2197C17.6398 14.079 17.449 14 17.2501 14C17.0512 14 16.8604 14.079 16.7198 14.2197C16.5791 14.3603 16.5001 14.5511 16.5001 14.75V17.75C16.5001 18.0455 16.4419 18.3381 16.3288 18.611C16.2158 18.884 16.05 19.1321 15.8411 19.341C15.6322 19.5499 15.3841 19.7157 15.1112 19.8287C14.8382 19.9418 14.5456 20 14.2501 20H5.74512C5.44964 20 5.15706 19.9418 4.88408 19.8287C4.6111 19.7157 4.36306 19.5499 4.15413 19.341C3.9452 19.1321 3.77946 18.884 3.66639 18.611C3.55332 18.3381 3.49512 18.0455 3.49512 17.75V5.75C3.49512 5.15326 3.73217 4.58097 4.15413 4.15901C4.57608 3.73705 5.14838 3.5 5.74512 3.5H11.7501C11.949 3.5 12.1398 3.42098 12.2804 3.28033C12.4211 3.13968 12.5001 2.94891 12.5001 2.75Z" fill="#6A6A6A"/>
</svg>
