<svg width="33" height="32" viewBox="0 0 33 32" fill="none" xmlns="http://www.w3.org/2000/svg">
<g clip-path="url(#clip0_3029_4274)">
<mask id="mask0_3029_4274" style="mask-type:alpha" maskUnits="userSpaceOnUse" x="0" y="0" width="33" height="32">
<path d="M0.333496 0H32.3335V32H0.333496V0Z" fill="white"/>
</mask>
<g mask="url(#mask0_3029_4274)">
<path fill-rule="evenodd" clip-rule="evenodd" d="M2.3335 22.6667C2.3335 24.0812 2.8954 25.4377 3.89559 26.4379C4.89579 27.4381 6.25234 28 7.66683 28H25.0002C26.4147 28 27.7712 27.4381 28.7714 26.4379C29.7716 25.4377 30.3335 24.0812 30.3335 22.6667V9.33333C30.3335 7.91885 29.7716 6.56229 28.7714 5.5621C27.7712 4.5619 26.4147 4 25.0002 4H7.66683C6.25234 4 4.89579 4.5619 3.89559 5.5621C2.8954 6.56229 2.3335 7.91885 2.3335 9.33333V22.6667ZM6.95883 9.21867C6.75161 9.05282 6.48699 8.97608 6.22319 9.00534C5.95939 9.03459 5.71801 9.16744 5.55216 9.37467C5.38631 9.58189 5.30958 9.84651 5.33883 10.1103C5.36809 10.3741 5.50094 10.6155 5.70816 10.7813L15.7082 18.7813C15.8856 18.9235 16.1061 19.001 16.3335 19.001C16.5608 19.001 16.7814 18.9235 16.9588 18.7813L26.9588 10.7813C27.0614 10.6992 27.1469 10.5977 27.2102 10.4826C27.2736 10.3674 27.3137 10.2409 27.3282 10.1103C27.3426 9.97969 27.3313 9.84749 27.2947 9.72127C27.2581 9.59505 27.197 9.47727 27.1148 9.37467C27.0327 9.27206 26.9312 9.18663 26.8161 9.12326C26.7009 9.05989 26.5744 9.01982 26.4438 9.00534C26.3132 8.99085 26.181 9.00223 26.0548 9.03884C25.9285 9.07544 25.8108 9.13655 25.7082 9.21867L16.3335 16.72L6.95883 9.21733V9.21867Z" fill="#10A8E5"/>
</g>
</g>
<defs>
<clipPath id="clip0_3029_4274">
<rect width="32" height="32" fill="white" transform="translate(0.333496)"/>
</clipPath>
</defs>
</svg>
