<svg width="32" height="32" viewBox="0 0 32 32" fill="none" xmlns="http://www.w3.org/2000/svg">
<g clip-path="url(#clip0_3029_9614)">
<mask id="mask0_3029_9614" style="mask-type:alpha" maskUnits="userSpaceOnUse" x="0" y="0" width="32" height="32">
<path d="M0 0H32V32H0V0Z" fill="white"/>
</mask>
<g mask="url(#mask0_3029_9614)">
<path fill-rule="evenodd" clip-rule="evenodd" d="M2 22.6667C2 24.0812 2.5619 25.4377 3.5621 26.4379C4.56229 27.4381 5.91885 28 7.33333 28H24.6667C26.0812 28 27.4377 27.4381 28.4379 26.4379C29.4381 25.4377 30 24.0812 30 22.6667V9.33333C30 7.91885 29.4381 6.56229 28.4379 5.5621C27.4377 4.5619 26.0812 4 24.6667 4H7.33333C5.91885 4 4.56229 4.5619 3.5621 5.5621C2.5619 6.56229 2 7.91885 2 9.33333V22.6667ZM6.62533 9.21867C6.41811 9.05282 6.15349 8.97608 5.88969 9.00534C5.62589 9.03459 5.38452 9.16744 5.21867 9.37467C5.05282 9.58189 4.97608 9.84651 5.00534 10.1103C5.03459 10.3741 5.16744 10.6155 5.37467 10.7813L15.3747 18.7813C15.5521 18.9235 15.7726 19.001 16 19.001C16.2274 19.001 16.4479 18.9235 16.6253 18.7813L26.6253 10.7813C26.7279 10.6992 26.8134 10.5977 26.8767 10.4826C26.9401 10.3674 26.9802 10.2409 26.9947 10.1103C27.0092 9.97969 26.9978 9.84749 26.9612 9.72127C26.9246 9.59505 26.8635 9.47727 26.7813 9.37467C26.6992 9.27206 26.5977 9.18663 26.4826 9.12326C26.3674 9.05989 26.2409 9.01982 26.1103 9.00534C25.9797 8.99085 25.8475 9.00223 25.7213 9.03884C25.595 9.07544 25.4773 9.13655 25.3747 9.21867L16 16.72L6.62533 9.21733V9.21867Z" fill="#D8D8D8"/>
</g>
</g>
<defs>
<clipPath id="clip0_3029_9614">
<rect width="32" height="32" fill="white"/>
</clipPath>
</defs>
</svg>
