<svg width="25" height="24" viewBox="0 0 25 24" fill="none" xmlns="http://www.w3.org/2000/svg">
<path d="M17.854 21H18.5C19.2957 21 20.0587 20.6839 20.6213 20.1213C21.1839 19.5587 21.5 18.7956 21.5 18V6C21.5 5.20435 21.1839 4.44129 20.6213 3.87868C20.0587 3.31607 19.2957 3 18.5 3H17.854C18.5934 3.82412 19.0017 4.89278 19 6V18C19.0015 19.1072 18.5933 20.1758 17.854 21Z" fill="#10A8E5"/>
<path fill-rule="evenodd" clip-rule="evenodd" d="M10.75 3C10.75 2.80109 10.829 2.61032 10.9697 2.46967C11.1103 2.32902 11.3011 2.25 11.5 2.25H14.5C15.4946 2.25 16.4484 2.64509 17.1517 3.34835C17.8549 4.05161 18.25 5.00544 18.25 6V18C18.25 18.9946 17.8549 19.9484 17.1517 20.6517C16.4484 21.3549 15.4946 21.75 14.5 21.75H6.5C5.50544 21.75 4.55161 21.3549 3.84835 20.6517C3.14509 19.9484 2.75 18.9946 2.75 18V11C2.75 10.8011 2.82902 10.6103 2.96967 10.4697C3.11032 10.329 3.30109 10.25 3.5 10.25C3.69891 10.25 3.88968 10.329 4.03033 10.4697C4.17098 10.6103 4.25 10.8011 4.25 11V18C4.25 18.5967 4.48705 19.169 4.90901 19.591C5.33097 20.0129 5.90326 20.25 6.5 20.25H14.5C15.0967 20.25 15.669 20.0129 16.091 19.591C16.5129 19.169 16.75 18.5967 16.75 18V6C16.75 5.40326 16.5129 4.83097 16.091 4.40901C15.669 3.98705 15.0967 3.75 14.5 3.75H11.5C11.3011 3.75 11.1103 3.67098 10.9697 3.53033C10.829 3.38968 10.75 3.19891 10.75 3Z" fill="#6A6A6A"/>
<path d="M10 15.5H12.75C12.9489 15.5 13.1397 15.421 13.2803 15.2803C13.421 15.1397 13.5 14.9489 13.5 14.75C13.5 14.5511 13.421 14.3603 13.2803 14.2197C13.1397 14.079 12.9489 14 12.75 14H10C9.80109 14 9.61032 14.079 9.46967 14.2197C9.32902 14.3603 9.25 14.5511 9.25 14.75C9.25 14.9489 9.32902 15.1397 9.46967 15.2803C9.61032 15.421 9.80109 15.5 10 15.5ZM14.75 18.5H10C9.80109 18.5 9.61032 18.421 9.46967 18.2803C9.32902 18.1397 9.25 17.9489 9.25 17.75C9.25 17.5511 9.32902 17.3603 9.46967 17.2197C9.61032 17.079 9.80109 17 10 17H14.75C14.9489 17 15.1397 17.079 15.2803 17.2197C15.421 17.3603 15.5 17.5511 15.5 17.75C15.5 17.9489 15.421 18.1397 15.2803 18.2803C15.1397 18.421 14.9489 18.5 14.75 18.5ZM6.25 15.5H6.75C6.94891 15.5 7.13968 15.421 7.28033 15.2803C7.42098 15.1397 7.5 14.9489 7.5 14.75C7.5 14.5511 7.42098 14.3603 7.28033 14.2197C7.13968 14.079 6.94891 14 6.75 14H6.25C6.05109 14 5.86032 14.079 5.71967 14.2197C5.57902 14.3603 5.5 14.5511 5.5 14.75C5.5 14.9489 5.57902 15.1397 5.71967 15.2803C5.86032 15.421 6.05109 15.5 6.25 15.5ZM7.5 17.75C7.5 17.9489 7.42098 18.1397 7.28033 18.2803C7.13968 18.421 6.94891 18.5 6.75 18.5H6.25C6.05109 18.5 5.86032 18.421 5.71967 18.2803C5.57902 18.1397 5.5 17.9489 5.5 17.75C5.5 17.5511 5.57902 17.3603 5.71967 17.2197C5.86032 17.079 6.05109 17 6.25 17H6.75C6.94891 17 7.13968 17.079 7.28033 17.2197C7.42098 17.3603 7.5 17.5511 7.5 17.75Z" fill="#6A6A6A"/>
<path d="M6.5 9H3.5L9.5 3V6C9.5 6.79565 9.18393 7.55871 8.62132 8.12132C8.05871 8.68393 7.29565 9 6.5 9Z" fill="#10A8E5"/>
</svg>
