<svg width="32" height="33" viewBox="0 0 32 33" fill="none" xmlns="http://www.w3.org/2000/svg">
<path fill-rule="evenodd" clip-rule="evenodd" d="M16.0003 4.1665C12.7293 4.1665 9.59229 5.46591 7.27934 7.77885C4.96639 10.0918 3.66699 13.2288 3.66699 16.4998C3.66699 19.7708 4.96639 22.9079 7.27934 25.2208C9.59229 27.5338 12.7293 28.8332 16.0003 28.8332C19.2713 28.8332 22.4084 27.5338 24.7213 25.2208C27.0343 22.9079 28.3337 19.7708 28.3337 16.4998C28.3337 13.2288 27.0343 10.0918 24.7213 7.77885C22.4084 5.46591 19.2713 4.1665 16.0003 4.1665V4.1665Z" fill="white"/>
<path d="M19.9403 17.8467C19.5952 17.8467 19.2537 17.9166 18.9363 18.052C18.8003 18.0827 17.7763 18.2853 16.8963 17.6547C15.9497 16.98 15.9803 16.564 15.9803 16.564C15.9803 16.564 16.3297 15.604 17.2737 15.2667C18.2203 14.9293 18.6657 15.0227 18.8577 15.0707C18.8643 15.0747 18.8763 15.068 18.887 15.068C19.2177 15.2213 19.5843 15.308 19.971 15.308C20.6593 15.3041 21.3183 15.0284 21.8042 14.5409C22.2902 14.0535 22.5639 13.3937 22.5657 12.7053C22.5618 12.017 22.2861 11.3581 21.7986 10.8721C21.3111 10.3861 20.6513 10.1124 19.963 10.1107C18.6617 10.1107 17.5817 11.084 17.3977 12.3373C17.3163 12.6107 17.1843 12.964 17.0043 13.14C16.6857 13.444 15.8537 14.6333 14.1577 14.1267C14.1577 14.1267 13.9043 13.18 14.859 12.14C15.471 11.6627 15.8643 10.92 15.8643 10.0907C15.8601 9.4028 15.5842 8.74449 15.0966 8.25922C14.6091 7.77394 13.9495 7.50104 13.2617 7.5C12.5731 7.50317 11.9138 7.77865 11.4276 8.26629C10.9415 8.75392 10.668 9.4141 10.667 10.1027C10.667 10.912 11.0457 11.64 11.635 12.116L11.631 12.124C11.631 12.124 12.287 12.7387 12.351 13.4707C12.3777 13.792 12.3777 13.9533 12.391 14.1187C11.383 14.4787 10.675 15.5133 10.6777 16.6387C10.6777 17.7747 11.4203 18.7427 12.4403 19.092C12.4403 19.092 12.4217 19.5893 12.4177 19.6093C12.415 19.628 12.4043 20.2613 11.559 21.1347C11.2838 21.377 11.0635 21.6753 10.9128 22.0096C10.7622 22.344 10.6848 22.7066 10.6857 23.0733C10.6892 23.7619 10.9647 24.4212 11.4522 24.9075C11.9398 25.3937 12.5997 25.6676 13.2883 25.6693C13.9767 25.6655 14.6356 25.3898 15.1216 24.9023C15.6076 24.4148 15.8812 23.755 15.883 23.0667C15.883 22.2147 15.463 21.4613 14.8257 20.9853C14.7323 20.8653 14.1243 20.0853 14.1243 19.5307C14.1243 19.2747 14.1283 19.0773 14.1283 19.0093C14.271 18.956 14.3017 18.9333 14.567 18.8893C14.6497 18.8813 15.583 18.8173 16.207 19.2627C16.839 19.7213 17.207 20.1453 17.3977 20.9027C17.508 21.5014 17.8242 22.0427 18.2914 22.4329C18.7586 22.8232 19.3475 23.038 19.9563 23.04C20.6447 23.0361 21.3036 22.7604 21.7896 22.2729C22.2756 21.7855 22.5492 21.1257 22.551 20.4373C22.544 19.749 22.266 19.0911 21.7774 18.6062C21.2888 18.1213 20.6287 17.8484 19.9403 17.8467V17.8467ZM21.291 20.3933C21.2912 20.5526 21.2599 20.7104 21.1991 20.8576C21.1383 21.0048 21.049 21.1385 20.9365 21.2512C20.8239 21.3639 20.6902 21.4533 20.5431 21.5143C20.396 21.5753 20.2383 21.6067 20.079 21.6067C19.4083 21.6067 19.1577 21.1947 19.1057 21.124C18.7755 20.5146 18.466 19.8943 18.1777 19.264L14.6977 17.3707C14.5651 17.5812 14.3851 17.7579 14.1721 17.8866C13.9592 18.0154 13.7191 18.0925 13.471 18.112V20.8053C13.471 20.828 14.575 22.3987 14.575 23.0187C14.5752 23.1779 14.5439 23.3357 14.4831 23.4829C14.4223 23.6301 14.333 23.7639 14.2205 23.8765C14.1079 23.9892 13.9742 24.0786 13.8271 24.1396C13.68 24.2006 13.5223 24.232 13.363 24.232C13.2036 24.2327 13.0457 24.2019 12.8983 24.1414C12.7508 24.0808 12.6168 23.9917 12.5039 23.8792C12.3911 23.7667 12.3015 23.633 12.2405 23.4858C12.1795 23.3385 12.1481 23.1807 12.1483 23.0213C12.1523 22.388 13.059 21.1053 13.2577 20.812V18.1133C12.8534 18.0902 12.4733 17.9134 12.1952 17.6192C11.9171 17.3249 11.7619 16.9355 11.7616 16.5306C11.7613 16.1257 11.9157 15.736 12.1934 15.4413C12.471 15.1466 12.8508 14.9691 13.255 14.9453V12.232C13.255 12.232 12.1337 10.688 12.1337 10.0507C12.1334 9.89133 12.1645 9.7335 12.2253 9.58619C12.286 9.43888 12.3751 9.30498 12.4876 9.19212C12.6001 9.07927 12.7337 8.98968 12.8808 8.92846C13.0279 8.86724 13.1857 8.8356 13.345 8.83533C13.5043 8.83507 13.6622 8.86619 13.8095 8.92693C13.9568 8.98766 14.0907 9.07681 14.2035 9.1893C14.3164 9.30178 14.406 9.43539 14.4672 9.5825C14.5284 9.7296 14.5601 9.88733 14.5603 10.0467C14.5603 10.676 13.467 12.2333 13.467 12.2333L13.4723 14.944C13.9817 14.9813 14.4283 15.2587 14.691 15.664L18.1897 13.7293C18.1897 13.7293 19.007 12.124 19.0403 12.0413C19.075 11.9587 19.419 11.4107 20.091 11.4107C20.7617 11.4107 21.3057 11.9507 21.3057 12.6227C21.306 12.7819 21.275 12.9397 21.2143 13.087C21.1536 13.2343 21.0645 13.3681 20.9521 13.4809C20.8396 13.5937 20.7061 13.6833 20.559 13.7444C20.4119 13.8056 20.2543 13.8372 20.095 13.8373C19.7457 13.8373 18.9617 13.8933 18.8763 13.8933L18.3057 13.9013L14.7923 15.8507C14.8897 16.0533 14.9417 16.2827 14.9417 16.5227C14.9417 16.7547 14.8883 16.976 14.799 17.1787C14.799 17.1787 18.3057 19.1293 18.2977 19.1293L20.071 19.1813C20.743 19.2 21.287 19.7213 21.291 20.392V20.3933Z" fill="#10A8E5"/>
</svg>
