<svg width="24" height="24" viewBox="0 0 24 24" fill="none" xmlns="http://www.w3.org/2000/svg">
<path d="M19.707 9.29299C19.6148 9.19748 19.5044 9.1213 19.3824 9.06889C19.2604 9.01648 19.1292 8.98889 18.9964 8.98774C18.8636 8.98659 18.7319 9.01189 18.609 9.06217C18.4862 9.11245 18.3745 9.1867 18.2806 9.2806C18.1867 9.37449 18.1125 9.48614 18.0622 9.60904C18.0119 9.73193 17.9866 9.86361 17.9877 9.99639C17.9889 10.1292 18.0165 10.2604 18.0689 10.3824C18.1213 10.5044 18.1975 10.6147 18.293 10.707L18.586 11H16C15.7348 11 15.4804 11.1053 15.2929 11.2929C15.1054 11.4804 15 11.7348 15 12C15 12.2652 15.1054 12.5196 15.2929 12.7071C15.4804 12.8946 15.7348 13 16 13H18.586L18.293 13.293C18.1108 13.4816 18.01 13.7342 18.0123 13.9964C18.0146 14.2586 18.1198 14.5094 18.3052 14.6948C18.4906 14.8802 18.7414 14.9854 19.0036 14.9877C19.2658 14.9899 19.5184 14.8891 19.707 14.707L21.707 12.707C21.8945 12.5195 21.9998 12.2652 21.9998 12C21.9998 11.7348 21.8945 11.4805 21.707 11.293L19.707 9.29299Z" fill="#10A8E5"/>
<path fill-rule="evenodd" clip-rule="evenodd" d="M13.75 3.25H7C6.20435 3.25 5.44129 3.56607 4.87868 4.12868C4.31607 4.69129 4 5.45435 4 6.25V18.352C3.99996 19.0706 4.25783 19.7653 4.72673 20.3098C5.19562 20.8543 5.84438 21.2124 6.555 21.319L10.555 21.919C11.0909 21.9999 11.6387 21.9339 12.1401 21.728C12.6414 21.5222 13.0776 21.1841 13.402 20.75H13.75C14.2425 20.75 14.7301 20.653 15.1851 20.4645C15.64 20.2761 16.0534 19.9999 16.4017 19.6517C16.7499 19.3034 17.0261 18.89 17.2145 18.4351C17.403 17.9801 17.5 17.4925 17.5 17V16.353C17.5 16.1541 17.421 15.9633 17.2803 15.8227C17.1397 15.682 16.9489 15.603 16.75 15.603C16.5511 15.603 16.3603 15.682 16.2197 15.8227C16.079 15.9633 16 16.1541 16 16.353V17C16.0001 17.5558 15.7945 18.092 15.4229 18.5052C15.0512 18.9184 14.5397 19.1795 13.987 19.238C13.995 19.144 14 19.048 14 18.952V6.65C14 5.933 13.747 5.27 13.321 4.75H13.75C14.3467 4.75 14.919 4.98705 15.341 5.40901C15.7629 5.83097 16 6.40326 16 7V7.647C16 7.84591 16.079 8.03668 16.2197 8.17733C16.3603 8.31798 16.5511 8.397 16.75 8.397C16.9489 8.397 17.1397 8.31798 17.2803 8.17733C17.421 8.03668 17.5 7.84591 17.5 7.647V7C17.5 6.50754 17.403 6.01991 17.2145 5.56494C17.0261 5.10997 16.7499 4.69657 16.4017 4.34835C16.0534 4.00013 15.64 3.72391 15.1851 3.53545C14.7301 3.347 14.2425 3.25 13.75 3.25ZM7.15 4.758L11.15 5.158C11.5199 5.19518 11.8628 5.3684 12.1123 5.64407C12.3617 5.91975 12.4999 6.27823 12.5 6.65V18.952C12.5 19.1678 12.4533 19.3811 12.3633 19.5772C12.2733 19.7734 12.1421 19.9478 11.9785 20.0885C11.815 20.2293 11.6229 20.3332 11.4156 20.393C11.2082 20.4527 10.9904 20.4671 10.777 20.435L6.777 19.835C6.42186 19.7816 6.09767 19.6026 5.86334 19.3304C5.629 19.0583 5.50008 18.7111 5.5 18.352V6.25C5.50007 6.04041 5.54406 5.83316 5.62913 5.64161C5.71421 5.45006 5.83849 5.27846 5.99395 5.13789C6.14941 4.99732 6.3326 4.89088 6.53172 4.82545C6.73084 4.76002 6.94146 4.73704 7.15 4.758Z" fill="#6A6A6A"/>
</svg>
