<svg width="24" height="24" viewBox="0 0 24 24" fill="none" xmlns="http://www.w3.org/2000/svg">
<path d="M8.68717 4.12076C9.71717 4.34876 10.5822 4.87476 11.3202 5.62076C11.5462 5.84876 11.7942 6.05576 12.0002 6.24376C12.2502 6.01176 12.5302 5.75676 12.8062 5.49676C13.8942 4.47176 15.1702 3.92576 16.6832 4.01376C17.7282 4.07376 18.6532 4.45576 19.3932 5.19376C20.8312 6.62876 21.3112 8.34376 20.8042 10.3158C20.5442 11.3238 20.0622 12.2298 19.4822 13.0858C18.5762 14.4218 17.4642 15.5758 16.2752 16.6598C15.1292 17.7048 13.9082 18.6578 12.6592 19.5758C12.4899 19.6998 12.2857 19.7669 12.0758 19.7676C11.866 19.7684 11.6613 19.7026 11.4912 19.5798L9.38117 18.0658C8.00617 16.9818 6.72217 15.7998 5.58117 14.4698C4.83417 13.5998 4.17117 12.6708 3.68017 11.6298C3.32017 10.8698 3.07217 10.0788 3.01317 9.23576C2.93317 8.08476 3.23317 7.03376 3.86917 6.07376C4.97117 4.41476 6.74017 3.69176 8.68717 4.12076Z" fill="#BEBEBE"/>
</svg>
