<svg width="25" height="24" viewBox="0 0 25 24" fill="none" xmlns="http://www.w3.org/2000/svg">
<path fill-rule="evenodd" clip-rule="evenodd" d="M19.271 7.182L20.496 6.769C20.5608 6.74811 20.6179 6.70843 20.66 6.655C20.69 6.615 20.7 6.58 20.7 6.545C20.7 6.505 20.686 6.455 20.63 6.401C20.5554 6.33336 20.4576 6.29717 20.357 6.3H4.643C4.54238 6.29717 4.44455 6.33336 4.37 6.401C4.314 6.455 4.3 6.505 4.3 6.545C4.3 6.58 4.31 6.615 4.34 6.655C4.38215 6.70843 4.43924 6.74811 4.504 6.769L5.729 7.182V17.7H19.27V7.182H19.271ZM21.071 8.475C21.904 8.194 22.5 7.436 22.5 6.545C22.5 5.415 21.54 4.5 20.357 4.5H4.643C3.459 4.5 2.5 5.416 2.5 6.545C2.5 7.436 3.096 8.194 3.929 8.475V18.136C3.929 18.89 4.569 19.5 5.357 19.5H19.643C20.432 19.5 21.071 18.89 21.071 18.136V8.475Z" fill="#6A6A6A"/>
<path d="M12.8238 9.53499C13.1681 9.193 13.6033 8.957 14.0778 8.85499C15.0048 8.65999 15.8478 8.98799 16.3718 9.74099C16.6748 10.177 16.8178 10.653 16.7798 11.176C16.7457 11.5553 16.6377 11.9242 16.4618 12.262C16.2204 12.7306 15.9159 13.164 15.5568 13.55C15.0076 14.1511 14.4014 14.6977 13.7468 15.182C13.4788 15.383 13.2058 15.578 12.9328 15.774L12.9308 15.776C12.8008 15.868 12.6708 15.961 12.5428 16.054C12.5168 16.073 12.4968 16.082 12.4628 16.059C11.7728 15.583 11.0948 15.091 10.4638 14.544C9.89779 14.052 9.36879 13.529 8.93679 12.923C8.66079 12.533 8.43079 12.123 8.30679 11.666C8.06579 10.771 8.29479 9.99299 8.97979 9.34199C9.33179 9.00699 9.77179 8.83399 10.2698 8.80599C10.9898 8.76599 11.5978 9.01399 12.1158 9.47899C12.2058 9.55999 12.2968 9.63899 12.3838 9.71599L12.4998 9.81799L12.5898 9.74199L12.5938 9.73799C12.6688 9.67499 12.7488 9.60799 12.8238 9.53499Z" fill="#10A8E5"/>
</svg>
