<svg width="32" height="33" viewBox="0 0 32 33" fill="none" xmlns="http://www.w3.org/2000/svg">
<path fill-rule="evenodd" clip-rule="evenodd" d="M17.333 21.1668C17.333 20.8132 17.4735 20.4741 17.7235 20.224C17.9736 19.974 18.3127 19.8335 18.6663 19.8335H24.6663C25.02 19.8335 25.3591 19.974 25.6092 20.224C25.8592 20.4741 25.9997 20.8132 25.9997 21.1668C25.9997 21.5205 25.8592 21.8596 25.6092 22.1096C25.3591 22.3597 25.02 22.5002 24.6663 22.5002H18.6663C18.3127 22.5002 17.9736 22.3597 17.7235 22.1096C17.4735 21.8596 17.333 21.5205 17.333 21.1668ZM17.333 25.8335C17.333 25.4799 17.4735 25.1407 17.7235 24.8907C17.9736 24.6406 18.3127 24.5002 18.6663 24.5002H27.9997C28.3533 24.5002 28.6924 24.6406 28.9425 24.8907C29.1925 25.1407 29.333 25.4799 29.333 25.8335C29.333 26.1871 29.1925 26.5263 28.9425 26.7763C28.6924 27.0264 28.3533 27.1668 27.9997 27.1668H18.6663C18.3127 27.1668 17.9736 27.0264 17.7235 26.7763C17.4735 26.5263 17.333 26.1871 17.333 25.8335Z" fill="white"/>
<path d="M15.6083 27.1602C15.5169 27.1663 15.4253 27.1685 15.3337 27.1669C14.6261 27.1816 13.932 26.973 13.3497 26.5709C9.82966 24.1602 2.66699 18.6269 2.66699 13.4255C2.66699 9.23352 5.73366 5.83352 9.51633 5.83352H9.66966C13.0963 5.82418 14.947 9.06952 15.3337 9.82952C15.7203 9.06952 17.5723 5.82418 20.9977 5.83352H21.151C24.9337 5.83352 28.0003 9.23352 28.0003 13.4255C28.0003 15.0335 27.3163 16.6722 26.267 18.2415C25.7765 17.9729 25.2262 17.8326 24.667 17.8335H18.667C18.0106 17.8336 17.3688 18.0275 16.8222 18.3909C16.2756 18.7542 15.8484 19.2709 15.5942 19.8761C15.34 20.4813 15.2702 21.148 15.3934 21.7927C15.5167 22.4374 15.8275 23.0314 16.287 23.5002C15.6751 24.1226 15.3326 24.9607 15.3337 25.8335C15.3337 26.3055 15.431 26.7535 15.6083 27.1602Z" fill="white"/>
</svg>
