<svg width="24" height="24" viewBox="0 0 24 24" fill="none" xmlns="http://www.w3.org/2000/svg">
<path d="M12.225 7.95C13.5919 7.95 14.7 6.8419 14.7 5.475C14.7 4.1081 13.5919 3 12.225 3C10.8581 3 9.75 4.1081 9.75 5.475C9.75 6.8419 10.8581 7.95 12.225 7.95Z" fill="white"/>
<path d="M12.225 14.5198C13.5919 14.5198 14.7 13.4117 14.7 12.0448C14.7 10.6779 13.5919 9.56982 12.225 9.56982C10.8581 9.56982 9.75 10.6779 9.75 12.0448C9.75 13.4117 10.8581 14.5198 12.225 14.5198Z" fill="white"/>
<path d="M12.225 20.9998C13.5919 20.9998 14.7 19.8917 14.7 18.5248C14.7 17.1579 13.5919 16.0498 12.225 16.0498C10.8581 16.0498 9.75 17.1579 9.75 18.5248C9.75 19.8917 10.8581 20.9998 12.225 20.9998Z" fill="white"/>
</svg>
