<svg width="33" height="32" viewBox="0 0 33 32" fill="none" xmlns="http://www.w3.org/2000/svg">
<g clip-path="url(#clip0_3029_9622)">
<mask id="mask0_3029_9622" style="mask-type:alpha" maskUnits="userSpaceOnUse" x="0" y="0" width="33" height="32">
<path d="M0.5 0H32.5V32H0.5V0Z" fill="white"/>
</mask>
<g mask="url(#mask0_3029_9622)">
<path fill-rule="evenodd" clip-rule="evenodd" d="M23.5 9.6665C23.5 11.523 22.7625 13.3035 21.4497 14.6163C20.137 15.929 18.3565 16.6665 16.5 16.6665C14.6435 16.6665 12.863 15.929 11.5503 14.6163C10.2375 13.3035 9.5 11.523 9.5 9.6665C9.5 7.80999 10.2375 6.02951 11.5503 4.71676C12.863 3.404 14.6435 2.6665 16.5 2.6665C18.3565 2.6665 20.137 3.404 21.4497 4.71676C22.7625 6.02951 23.5 7.80999 23.5 9.6665ZM16.5 18.6665C18.4091 18.6695 20.2693 18.0627 21.8093 16.9345C23.9992 17.455 25.9495 18.6987 27.345 20.4647C28.7406 22.2307 29.4998 24.4157 29.5 26.6665C29.5 27.4622 29.1839 28.2252 28.6213 28.7878C28.0587 29.3504 27.2957 29.6665 26.5 29.6665H6.5C5.70435 29.6665 4.94129 29.3504 4.37868 28.7878C3.81607 28.2252 3.5 27.4622 3.5 26.6665C3.50019 24.4157 4.25943 22.2307 5.65498 20.4647C7.05053 18.6987 9.00084 17.455 11.1907 16.9345C12.7307 18.0627 14.5909 18.6695 16.5 18.6665Z" fill="#D3D3D3"/>
</g>
</g>
<defs>
<clipPath id="clip0_3029_9622">
<rect width="32" height="32" fill="white" transform="translate(0.5)"/>
</clipPath>
</defs>
</svg>
