<svg width="24" height="24" viewBox="0 0 24 24" fill="none" xmlns="http://www.w3.org/2000/svg">
<path fill-rule="evenodd" clip-rule="evenodd" d="M16.0801 3.85496V16.305C16.08 16.4753 16.0364 16.6429 15.9534 16.7917C15.8703 16.9405 15.7507 17.0656 15.6057 17.1552C15.4608 17.2447 15.2953 17.2957 15.1251 17.3034C14.9549 17.3111 14.7855 17.2751 14.6331 17.199L8.16012 13.92V6.23996L14.6331 2.95996C14.7856 2.88376 14.9551 2.8478 15.1254 2.85552C15.2957 2.86323 15.4612 2.91435 15.6061 3.00403C15.7511 3.0937 15.8708 3.21895 15.9537 3.36789C16.0367 3.51682 16.0802 3.68448 16.0801 3.85496ZM5.52012 15.36C5.2549 15.36 5.00055 15.4653 4.81301 15.6529C4.62547 15.8404 4.52012 16.0947 4.52012 16.36V20C4.52012 20.2652 4.62547 20.5195 4.81301 20.7071C5.00055 20.8946 5.2549 21 5.52012 21H7.16012C7.29144 21 7.42148 20.9741 7.5428 20.9238C7.66413 20.8736 7.77437 20.7999 7.86722 20.7071C7.96008 20.6142 8.03374 20.504 8.084 20.3826C8.13425 20.2613 8.16012 20.1313 8.16012 20V15.36H5.52012ZM5.76012 6.23996C3.75012 6.23996 2.12012 7.95996 2.12012 10.08C2.12012 12.2 3.75012 13.92 5.76012 13.92H8.16012V6.23996H5.76012Z" fill="#10A8E5"/>
<path fill-rule="evenodd" clip-rule="evenodd" d="M21.0234 3.64004C21.1698 3.80822 21.2453 4.02665 21.2339 4.24935C21.2226 4.47206 21.1252 4.68166 20.9624 4.83404L19.1334 6.52404C19.0539 6.59807 18.9603 6.65531 18.8582 6.69234C18.756 6.72937 18.6475 6.74542 18.539 6.73954C18.4305 6.73366 18.3244 6.70597 18.2268 6.65811C18.1293 6.61026 18.0424 6.54323 17.9714 6.46104C17.825 6.29286 17.7495 6.07443 17.7609 5.85173C17.7723 5.62902 17.8696 5.41942 18.0324 5.26704L19.8614 3.57704C19.9409 3.50301 20.0345 3.44576 20.1367 3.40874C20.2388 3.37171 20.3473 3.35566 20.4558 3.36154C20.5643 3.36742 20.6705 3.39511 20.768 3.44297C20.8655 3.49082 20.9524 3.55784 21.0234 3.64004ZM17.7604 9.84004C17.7604 9.37304 18.1284 8.99504 18.5834 8.99504H20.7774C21.2324 8.99504 21.6004 9.37304 21.6004 9.84004C21.6019 9.94956 21.5817 10.0583 21.5412 10.16C21.5006 10.2618 21.4404 10.3545 21.3639 10.433C21.2875 10.5115 21.1964 10.5741 21.0957 10.6174C20.9951 10.6606 20.8869 10.6836 20.7774 10.685H18.5834C18.4739 10.6836 18.3657 10.6606 18.2651 10.6174C18.1644 10.5741 18.0733 10.5115 17.9969 10.433C17.9205 10.3545 17.8602 10.2618 17.8197 10.16C17.7791 10.0583 17.759 9.94956 17.7604 9.84004ZM17.9714 13.219C18.0424 13.1368 18.1293 13.0698 18.2268 13.022C18.3244 12.9741 18.4305 12.9464 18.539 12.9405C18.6475 12.9347 18.756 12.9507 18.8582 12.9877C18.9603 13.0248 19.0539 13.082 19.1334 13.156L20.9624 14.846C21.1252 14.9984 21.2226 15.208 21.2339 15.4307C21.2453 15.6534 21.1698 15.8719 21.0234 16.04C20.9524 16.1222 20.8655 16.1893 20.768 16.2371C20.6705 16.285 20.5643 16.3127 20.4558 16.3185C20.3473 16.3244 20.2388 16.3084 20.1367 16.2713C20.0345 16.2343 19.9409 16.1771 19.8614 16.103L18.0324 14.413C17.8697 14.2605 17.7726 14.0509 17.7614 13.8282C17.7502 13.6055 17.8259 13.3871 17.9724 13.219H17.9714Z" fill="#F77670"/>
</svg>
