<svg width="18" height="19" viewBox="0 0 18 19" fill="none" xmlns="http://www.w3.org/2000/svg">
<path fill-rule="evenodd" clip-rule="evenodd" d="M11.3991 13.2763C10.1301 14.1986 8.55995 14.6086 7.00203 14.4244C5.4441 14.2402 4.0129 13.4754 2.99396 12.2826C1.97502 11.0897 1.44327 9.55659 1.5048 7.98902C1.56633 6.42145 2.21661 4.93471 3.3259 3.82541C4.43519 2.71612 5.92194 2.06584 7.48951 2.00431C9.05708 1.94279 10.5902 2.47454 11.783 3.49347C12.9759 4.51241 13.7407 5.94361 13.9249 7.50154C14.1091 9.05946 13.6991 10.6296 12.7768 11.8986L16.2148 15.3373C16.3065 15.4275 16.3795 15.535 16.4294 15.6535C16.4794 15.772 16.5054 15.8993 16.5059 16.0279C16.5064 16.1565 16.4815 16.284 16.4325 16.4029C16.3836 16.5218 16.3115 16.6299 16.2206 16.7208C16.1296 16.8118 16.0216 16.8838 15.9026 16.9328C15.7837 16.9818 15.6562 17.0067 15.5276 17.0062C15.399 17.0056 15.2718 16.9796 15.1532 16.9297C15.0347 16.8797 14.9273 16.8068 14.8371 16.7151L11.3991 13.2763ZM12.0193 8.23409C12.0193 9.37077 11.5678 10.4609 10.764 11.2647C9.96026 12.0684 8.87013 12.52 7.73345 12.52C6.59676 12.52 5.50663 12.0684 4.70288 11.2647C3.89912 10.4609 3.44757 9.37077 3.44757 8.23409C3.44757 7.0974 3.89912 6.00727 4.70288 5.20351C5.50663 4.39976 6.59676 3.94821 7.73345 3.94821C8.87013 3.94821 9.96026 4.39976 10.764 5.20351C11.5678 6.00727 12.0193 7.0974 12.0193 8.23409Z" fill="#989898"/>
</svg>
