<svg width="18" height="18" viewBox="0 0 18 18" fill="none" xmlns="http://www.w3.org/2000/svg">
<path d="M14.5 7C15.1922 7 15.8689 6.79473 16.4445 6.41015C17.02 6.02556 17.4686 5.47894 17.7336 4.83939C17.9985 4.19985 18.0678 3.49612 17.9327 2.81719C17.7977 2.13825 17.4643 1.51461 16.9749 1.02513C16.4854 0.535644 15.8617 0.202301 15.1828 0.0672531C14.5039 -0.0677952 13.8001 0.00151649 13.1606 0.266423C12.521 0.53133 11.9744 0.979934 11.5898 1.55551C11.2052 2.13108 11 2.80777 11 3.5C11 3.93 10.797 4.36 10.405 4.537L7.03398 6.07C6.60698 6.264 6.10998 6.122 5.75098 5.82C5.24892 5.39849 4.63857 5.12645 3.98946 5.03487C3.34034 4.94328 2.67855 5.03584 2.07947 5.30199C1.48039 5.56815 0.968097 5.9972 0.600944 6.54028C0.23379 7.08336 0.0265353 7.71863 0.0027864 8.37375C-0.0209625 9.02886 0.139749 9.67747 0.466616 10.2457C0.793482 10.814 1.27336 11.279 1.8516 11.5878C2.42984 11.8966 3.08319 12.0369 3.73723 11.9925C4.39127 11.9482 5.01971 11.7211 5.55098 11.337C5.93098 11.062 6.43598 10.956 6.84798 11.181L10.433 13.136C10.845 13.361 11.03 13.843 11.005 14.312C10.9624 15.1047 11.1905 15.8883 11.6519 16.5343C12.1134 17.1802 12.7807 17.6501 13.5444 17.8669C14.308 18.0836 15.1227 18.0343 15.8547 17.727C16.5866 17.4198 17.1924 16.8728 17.5725 16.1759C17.9527 15.479 18.0846 14.6736 17.9467 13.8918C17.8088 13.1101 17.4092 12.3984 16.8136 11.8736C16.2179 11.3489 15.4616 11.0422 14.6687 11.0039C13.8758 10.9656 13.0934 11.1981 12.45 11.663C12.07 11.938 11.564 12.044 11.152 11.819L7.56698 9.864C7.15498 9.639 6.96998 9.157 6.99498 8.688C6.99798 8.626 6.99998 8.563 6.99998 8.5C6.99998 8.07 7.20298 7.64 7.59498 7.463L10.966 5.93C11.394 5.736 11.89 5.878 12.249 6.18C12.858 6.692 13.643 7 14.5 7Z" fill="white"/>
</svg>
