<svg width="24" height="24" viewBox="0 0 24 24" fill="none" xmlns="http://www.w3.org/2000/svg">
<path fill-rule="evenodd" clip-rule="evenodd" d="M18.5004 9C18.7656 9 19.02 9.10536 19.2075 9.29289C19.3951 9.48043 19.5004 9.73478 19.5004 10V16.586L20.2934 15.793C20.482 15.6108 20.7346 15.51 20.9968 15.5123C21.259 15.5146 21.5098 15.6198 21.6952 15.8052C21.8806 15.9906 21.9858 16.2414 21.9881 16.5036C21.9904 16.7658 21.8896 17.0184 21.7074 17.207L19.2074 19.707C19.0199 19.8945 18.7656 19.9998 18.5004 19.9998C18.2352 19.9998 17.9809 19.8945 17.7934 19.707L15.2934 17.207C15.1112 17.0184 15.0105 16.7658 15.0127 16.5036C15.015 16.2414 15.1202 15.9906 15.3056 15.8052C15.491 15.6198 15.7418 15.5146 16.004 15.5123C16.2662 15.51 16.5188 15.6108 16.7074 15.793L17.5004 16.586V10C17.5004 9.73478 17.6058 9.48043 17.7933 9.29289C17.9808 9.10536 18.2352 9 18.5004 9Z" fill="#10A8E5"/>
<path d="M19.91 4H4.09002C3.80067 4 3.52317 4.11494 3.31857 4.31955C3.11397 4.52415 2.99902 4.80165 2.99902 5.091C2.99902 5.38035 3.11397 5.65785 3.31857 5.86245C3.52317 6.06706 3.80067 6.182 4.09002 6.182H19.91C20.1994 6.182 20.4769 6.06706 20.6815 5.86245C20.8861 5.65785 21.001 5.38035 21.001 5.091C21.001 4.80165 20.8861 4.52415 20.6815 4.31955C20.4769 4.11494 20.1994 4 19.91 4ZM14.41 8H4.09002C3.80067 8 3.52317 8.11494 3.31857 8.31955C3.11397 8.52415 2.99902 8.80165 2.99902 9.091C2.99902 9.38035 3.11397 9.65785 3.31857 9.86245C3.52317 10.0671 3.80067 10.182 4.09002 10.182H14.41C14.6994 10.182 14.9769 10.0671 15.1815 9.86245C15.3861 9.65785 15.501 9.38035 15.501 9.091C15.501 8.80165 15.3861 8.52415 15.1815 8.31955C14.9769 8.11494 14.6994 8 14.41 8ZM11.91 12H4.09002C3.80067 12 3.52317 12.1149 3.31857 12.3195C3.11397 12.5241 2.99902 12.8016 2.99902 13.091C2.99902 13.3804 3.11397 13.6579 3.31857 13.8625C3.52317 14.0671 3.80067 14.182 4.09002 14.182H11.91C12.1994 14.182 12.4769 14.0671 12.6815 13.8625C12.8861 13.6579 13.001 13.3804 13.001 13.091C13.001 12.8016 12.8861 12.5241 12.6815 12.3195C12.4769 12.1149 12.1994 12 11.91 12ZM9.41002 16H4.09002C3.80067 16 3.52317 16.1149 3.31857 16.3195C3.11397 16.5241 2.99902 16.8016 2.99902 17.091C2.99902 17.3804 3.11397 17.6579 3.31857 17.8625C3.52317 18.0671 3.80067 18.182 4.09002 18.182H9.41002C9.69937 18.182 9.97687 18.0671 10.1815 17.8625C10.3861 17.6579 10.501 17.3804 10.501 17.091C10.501 16.8016 10.3861 16.5241 10.1815 16.3195C9.97687 16.1149 9.69937 16 9.41002 16Z" fill="#6A6A6A"/>
</svg>
