<svg width="24" height="24" viewBox="0 0 24 24" fill="none" xmlns="http://www.w3.org/2000/svg">
<path fill-rule="evenodd" clip-rule="evenodd" d="M18.5006 19.9998C18.2354 19.9998 17.981 19.8944 17.7935 19.7069C17.6059 19.5193 17.5006 19.265 17.5006 18.9998V12.4138L16.7076 13.2068C16.519 13.3889 16.2664 13.4897 16.0042 13.4874C15.742 13.4852 15.4912 13.38 15.3058 13.1946C15.1203 13.0092 15.0152 12.7584 15.0129 12.4962C15.0106 12.234 15.1114 11.9814 15.2936 11.7928L17.7936 9.29276C17.9811 9.10528 18.2354 8.99997 18.5006 8.99997C18.7657 8.99997 19.02 9.10528 19.2076 9.29276L21.7076 11.7928C21.8897 11.9814 21.9905 12.234 21.9882 12.4962C21.986 12.7584 21.8808 13.0092 21.6954 13.1946C21.51 13.38 21.2592 13.4852 20.997 13.4874C20.7348 13.4897 20.4822 13.3889 20.2936 13.2068L19.5006 12.4138V18.9998C19.5006 19.265 19.3952 19.5193 19.2077 19.7069C19.0201 19.8944 18.7658 19.9998 18.5006 19.9998Z" fill="#10A8E5"/>
<path d="M19.91 4H4.09002C3.80067 4 3.52317 4.11494 3.31857 4.31955C3.11397 4.52415 2.99902 4.80165 2.99902 5.091C2.99902 5.38035 3.11397 5.65785 3.31857 5.86245C3.52317 6.06706 3.80067 6.182 4.09002 6.182H19.91C20.1994 6.182 20.4769 6.06706 20.6815 5.86245C20.8861 5.65785 21.001 5.38035 21.001 5.091C21.001 4.80165 20.8861 4.52415 20.6815 4.31955C20.4769 4.11494 20.1994 4 19.91 4ZM14.41 8H4.09002C3.80067 8 3.52317 8.11494 3.31857 8.31955C3.11397 8.52415 2.99902 8.80165 2.99902 9.091C2.99902 9.38035 3.11397 9.65785 3.31857 9.86245C3.52317 10.0671 3.80067 10.182 4.09002 10.182H14.41C14.6994 10.182 14.9769 10.0671 15.1815 9.86245C15.3861 9.65785 15.501 9.38035 15.501 9.091C15.501 8.80165 15.3861 8.52415 15.1815 8.31955C14.9769 8.11494 14.6994 8 14.41 8ZM11.91 12H4.09002C3.80067 12 3.52317 12.1149 3.31857 12.3195C3.11397 12.5241 2.99902 12.8016 2.99902 13.091C2.99902 13.3804 3.11397 13.6579 3.31857 13.8625C3.52317 14.0671 3.80067 14.182 4.09002 14.182H11.91C12.1994 14.182 12.4769 14.0671 12.6815 13.8625C12.8861 13.6579 13.001 13.3804 13.001 13.091C13.001 12.8016 12.8861 12.5241 12.6815 12.3195C12.4769 12.1149 12.1994 12 11.91 12ZM9.41002 16H4.09002C3.80067 16 3.52317 16.1149 3.31857 16.3195C3.11397 16.5241 2.99902 16.8016 2.99902 17.091C2.99902 17.3804 3.11397 17.6579 3.31857 17.8625C3.52317 18.0671 3.80067 18.182 4.09002 18.182H9.41002C9.69937 18.182 9.97687 18.0671 10.1815 17.8625C10.3861 17.6579 10.501 17.3804 10.501 17.091C10.501 16.8016 10.3861 16.5241 10.1815 16.3195C9.97687 16.1149 9.69937 16 9.41002 16Z" fill="#6A6A6A"/>
</svg>
