<svg width="128" height="127" viewBox="0 0 128 127" fill="none" xmlns="http://www.w3.org/2000/svg">
<path fill-rule="evenodd" clip-rule="evenodd" d="M69.7594 10.7253C67.8988 0.66057 54.0685 0.66057 52.208 10.7253C50.8935 17.8627 42.575 20.7393 37.4252 15.8307L36.6251 15.0687C29.5067 8.28692 18.6546 16.8023 22.9281 25.8193C26.0079 32.3026 20.9215 39.7575 14.0254 38.8495L13.3714 38.7606C3.87179 37.5033 -0.179512 50.9399 8.31044 55.569C14.4509 58.9218 14.4509 68.0785 8.31044 71.4313C-0.173162 76.0605 3.87814 89.4971 13.3777 88.2398L14.0318 88.1509C20.9279 87.2428 26.0142 94.6914 22.9345 101.181C18.6546 110.198 29.5131 118.713 36.6314 111.932L37.4315 111.17C42.575 106.261 50.8935 109.138 52.2143 116.275C54.0749 126.34 67.9052 126.34 69.7657 116.275C71.0802 109.138 79.3987 106.261 84.5485 111.17L85.3486 111.932C92.467 118.713 103.319 110.198 99.0456 101.181C95.9658 94.6977 101.052 87.2428 107.948 88.1509L108.602 88.2398C118.102 89.4971 122.153 76.0605 113.67 71.4313C107.523 68.0785 107.523 58.9218 113.67 55.569C122.153 50.9399 118.102 37.5033 108.602 38.7606L107.948 38.8495C101.052 39.7575 95.9658 32.309 99.0456 25.8193C103.319 16.8023 92.467 8.28692 85.3486 15.0751L84.5485 15.8371C79.405 20.7393 71.0865 17.8691 69.7657 10.7253H69.7594ZM79.5003 46.6981C82.3705 48.838 82.9547 52.8893 80.7957 55.7405L62.1584 79.0132C61.5979 79.7562 60.8846 80.3704 60.0667 80.8145C59.2488 81.2586 58.3452 81.5223 57.4168 81.5879C56.4885 81.6535 55.5568 81.5194 54.6846 81.1947C53.8124 80.87 53.0198 80.3621 52.3604 79.7054L41.7749 68.6691C39.2349 66.1481 39.2349 62.0524 41.7749 59.5251C42.9987 58.3117 44.6522 57.6309 46.3755 57.6309C48.0988 57.6309 49.7523 58.3117 50.9761 59.5251L56.2466 65.2972L70.3944 47.9871C72.547 45.1296 76.6174 44.5581 79.5003 46.6981V46.6981Z" fill="white"/>
</svg>
