<svg width="15" height="16" viewBox="0 0 15 16" fill="none" xmlns="http://www.w3.org/2000/svg">
<path fill-rule="evenodd" clip-rule="evenodd" d="M8.47012 2.50875C8.26825 1.41375 6.76387 1.41375 6.56137 2.50875C6.41762 3.28562 5.51262 3.59812 4.95262 3.06438L4.86637 2.98188C4.09137 2.24313 2.91012 3.17 3.37575 4.15062C3.71137 4.85687 3.157 5.6675 2.40762 5.56813L2.33637 5.55875C1.30262 5.42187 0.862 6.88375 1.78512 7.3875C2.45325 7.75187 2.45325 8.74813 1.78512 9.1125C0.862 9.61625 1.30262 11.0781 2.33637 10.9412L2.40762 10.9319C3.15762 10.8325 3.71137 11.6438 3.37637 12.3494C2.91075 13.33 4.09137 14.2569 4.86637 13.5181L4.95262 13.4356C5.51262 12.9019 6.41825 13.2144 6.56137 13.9919C6.76325 15.0863 8.26762 15.0863 8.47012 13.9919C8.61387 13.2144 9.51887 12.9019 10.0789 13.4356L10.1651 13.5181C10.9401 14.2569 12.1214 13.33 11.6551 12.3494C11.3201 11.6431 11.8739 10.8325 12.6239 10.9319L12.6951 10.9412C13.7289 11.0781 14.1695 9.61625 13.2464 9.1125C12.5782 8.74813 12.5782 7.75187 13.2464 7.3875C14.1695 6.88375 13.7289 5.42187 12.6951 5.55875L12.6239 5.56813C11.8739 5.6675 11.3208 4.85625 11.6551 4.15062C12.1207 3.17 10.9401 2.24313 10.1651 2.98188L10.0789 3.06438C9.51887 3.59812 8.61325 3.28562 8.47012 2.50813V2.50875ZM9.5295 6.42188C9.842 6.655 9.90575 7.09562 9.67075 7.40625L7.64262 9.9375C7.58162 10.0184 7.50399 10.0852 7.41497 10.1335C7.32595 10.1819 7.22761 10.2105 7.12657 10.2176C7.02553 10.2247 6.92413 10.2101 6.82923 10.1747C6.73432 10.1393 6.6481 10.084 6.57637 10.0125L5.42637 8.8125C5.3608 8.74743 5.30876 8.67003 5.27324 8.58475C5.23773 8.49947 5.21944 8.408 5.21944 8.31562C5.21944 8.22325 5.23773 8.13178 5.27324 8.0465C5.30876 7.96122 5.3608 7.88382 5.42637 7.81875C5.55944 7.687 5.73912 7.61309 5.92637 7.61309C6.11363 7.61309 6.29331 7.687 6.42637 7.81875L7.00012 8.445L8.53887 6.5625C8.6521 6.41318 8.81971 6.31463 9.00524 6.28829C9.19077 6.26196 9.3792 6.30997 9.5295 6.42188Z" fill="#10A8E5"/>
</svg>
