<svg width="24" height="24" viewBox="0 0 24 24" fill="none" xmlns="http://www.w3.org/2000/svg">
<path d="M7.85 5.425C7.85 4.08571 6.76429 3 5.425 3C4.08571 3 3 4.08571 3 5.425C3 6.76429 4.08571 7.85 5.425 7.85C6.76429 7.85 7.85 6.76429 7.85 5.425Z" fill="#F77670"/>
<path d="M7.85 11.925C7.85 10.5857 6.76429 9.5 5.425 9.5C4.08571 9.5 3 10.5857 3 11.925C3 13.2643 4.08571 14.35 5.425 14.35C6.76429 14.35 7.85 13.2643 7.85 11.925Z" fill="#10A8E5"/>
<path d="M9.5 5.5C9.5 5.10218 9.65804 4.72064 9.93934 4.43934C10.2206 4.15804 10.6022 4 11 4H19.5C19.8978 4 20.2794 4.15804 20.5607 4.43934C20.842 4.72064 21 5.10218 21 5.5C21 5.89782 20.842 6.27936 20.5607 6.56066C20.2794 6.84196 19.8978 7 19.5 7H11C10.6022 7 10.2206 6.84196 9.93934 6.56066C9.65804 6.27936 9.5 5.89782 9.5 5.5Z" fill="#10A8E5"/>
<path d="M19.5 10.5H11C10.1716 10.5 9.5 11.1716 9.5 12C9.5 12.8284 10.1716 13.5 11 13.5H19.5C20.3284 13.5 21 12.8284 21 12C21 11.1716 20.3284 10.5 19.5 10.5Z" fill="#10A8E5"/>
<path d="M19.5 17H11C10.1716 17 9.5 17.6716 9.5 18.5C9.5 19.3284 10.1716 20 11 20H19.5C20.3284 20 21 19.3284 21 18.5C21 17.6716 20.3284 17 19.5 17Z" fill="#10A8E5"/>
<path d="M7.85 18.425C7.85 17.0857 6.76429 16 5.425 16C4.08571 16 3 17.0857 3 18.425C3 19.7643 4.08571 20.85 5.425 20.85C6.76429 20.85 7.85 19.7643 7.85 18.425Z" fill="#10A8E5"/>
</svg>
