<svg width="24" height="24" viewBox="0 0 24 24" fill="none" xmlns="http://www.w3.org/2000/svg">
<path d="M21 13.65C21 13.3848 20.8946 13.1305 20.7071 12.9429C20.5196 12.7554 20.2652 12.65 20 12.65C19.7348 12.65 19.4804 12.7554 19.2929 12.9429C19.1054 13.1305 19 13.3848 19 13.65V15.65C19 16.1805 18.7893 16.6892 18.4142 17.0642C18.0391 17.4393 17.5304 17.65 17 17.65H11.5L12.1 17.2C12.2051 17.1212 12.2936 17.0225 12.3605 16.9095C12.4274 16.7965 12.4714 16.6714 12.4899 16.5414C12.5085 16.4114 12.5013 16.2791 12.4687 16.1518C12.4361 16.0246 12.3788 15.9051 12.3 15.8C12.2212 15.695 12.1225 15.6065 12.0095 15.5396C11.8965 15.4726 11.7714 15.4286 11.6414 15.4101C11.5114 15.3915 11.379 15.3987 11.2518 15.4313C11.1246 15.4639 11.0051 15.5212 10.9 15.6L7.9 17.85C7.7758 17.9432 7.675 18.064 7.60557 18.2028C7.53614 18.3417 7.5 18.4948 7.5 18.65C7.5 18.8053 7.53614 18.9584 7.60557 19.0972C7.675 19.2361 7.7758 19.3569 7.9 19.45L10.9 21.7C11.1122 21.8592 11.3789 21.9275 11.6414 21.89C11.904 21.8525 12.1409 21.7122 12.3 21.5C12.4591 21.2879 12.5275 21.0212 12.4899 20.7586C12.4524 20.4961 12.3122 20.2592 12.1 20.1L11.5 19.65H17C18.0609 19.65 19.0783 19.2286 19.8284 18.4785C20.5786 17.7283 21 16.7109 21 15.65V13.65Z" fill="#10A8E5"/>
<path fill-rule="evenodd" clip-rule="evenodd" d="M5 3.75C4.40326 3.75 3.83097 3.98705 3.40901 4.40901C2.98705 4.83097 2.75 5.40326 2.75 6V12C2.75 12.5967 2.98705 13.169 3.40901 13.591C3.83097 14.0129 4.40326 14.25 5 14.25H7.5C7.69891 14.25 7.88968 14.329 8.03033 14.4697C8.17098 14.6103 8.25 14.8011 8.25 15C8.25 15.1989 8.17098 15.3897 8.03033 15.5303C7.88968 15.671 7.69891 15.75 7.5 15.75H5C4.00544 15.75 3.05161 15.3549 2.34835 14.6517C1.64509 13.9484 1.25 12.9946 1.25 12V6C1.25 5.00544 1.64509 4.05161 2.34835 3.34835C3.05161 2.64509 4.00544 2.25 5 2.25H19C19.9946 2.25 20.9484 2.64509 21.6517 3.34835C22.3549 4.05161 22.75 5.00544 22.75 6V12C22.75 12.1989 22.671 12.3897 22.5303 12.5303C22.3897 12.671 22.1989 12.75 22 12.75C21.8011 12.75 21.6103 12.671 21.4697 12.5303C21.329 12.3897 21.25 12.1989 21.25 12V6C21.25 5.40326 21.0129 4.83097 20.591 4.40901C20.169 3.98705 19.5967 3.75 19 3.75H5ZM13.75 15C13.75 14.8011 13.829 14.6103 13.9697 14.4697C14.1103 14.329 14.3011 14.25 14.5 14.25H17C17.1989 14.25 17.3897 14.329 17.5303 14.4697C17.671 14.6103 17.75 14.8011 17.75 15C17.75 15.1989 17.671 15.3897 17.5303 15.5303C17.3897 15.671 17.1989 15.75 17 15.75H14.5C14.3011 15.75 14.1103 15.671 13.9697 15.5303C13.829 15.3897 13.75 15.1989 13.75 15Z" fill="#6A6A6A"/>
<path fill-rule="evenodd" clip-rule="evenodd" d="M12 12C12.7956 12 13.5587 11.6839 14.1213 11.1213C14.6839 10.5587 15 9.79565 15 9C15 8.20435 14.6839 7.44129 14.1213 6.87868C13.5587 6.31607 12.7956 6 12 6C11.2044 6 10.4413 6.31607 9.87868 6.87868C9.31607 7.44129 9 8.20435 9 9C9 9.79565 9.31607 10.5587 9.87868 11.1213C10.4413 11.6839 11.2044 12 12 12Z" fill="#6A6A6A"/>
</svg>
